<svg width="150" height="169" viewBox="0 0 150 169" fill="none" xmlns="http://www.w3.org/2000/svg">
<mask id="mask0" mask-type="alpha" maskUnits="userSpaceOnUse" x="0" y="0" width="150" height="169">
<rect width="150" height="168.25" fill="#C4C4C4"/>
</mask>
<g mask="url(#mask0)">
<path d="M33.4452 4.81464C69.578 -8.38744 150 5.81641 150 44.2856C150 116.726 71.9139 156.662 33.4448 156.662C-5.02439 156.662 1.40323 94.9012 1.40325 83.7565C1.40328 72.6117 9.29778 13.6376 33.4452 4.81464Z" fill="#F1EBFF"/>
<g opacity="0.4">
<path opacity="0.5" d="M116.289 26.6876H32.3525C31.186 26.6876 30.0672 27.151 29.2424 27.9758C28.4175 28.8007 27.9541 29.9194 27.9541 31.086V84.8254H120.688V31.086C120.688 29.9194 120.224 28.8007 119.399 27.9758C118.574 27.151 117.456 26.6876 116.289 26.6876Z" fill="#E5E5E5"/>
<path d="M135.213 80.0552C134.073 80.0552 133.149 79.131 133.149 77.991C133.149 76.8509 134.073 75.9267 135.213 75.9267C136.353 75.9267 137.278 76.8509 137.278 77.991C137.278 79.131 136.353 80.0552 135.213 80.0552Z" fill="#AB91DF"/>
<path d="M129.398 80.0552C128.258 80.0552 127.334 79.131 127.334 77.991C127.334 76.8509 128.258 75.9267 129.398 75.9267C130.538 75.9267 131.462 76.8509 131.462 77.991C131.462 79.131 130.538 80.0552 129.398 80.0552Z" fill="#AB91DF"/>
<path d="M123.581 80.0552C122.441 80.0552 121.517 79.131 121.517 77.991C121.517 76.8509 122.441 75.9267 123.581 75.9267C124.721 75.9267 125.646 76.8509 125.646 77.991C125.646 79.131 124.721 80.0552 123.581 80.0552Z" fill="#AB91DF"/>
<path d="M117.766 80.0552C116.626 80.0552 115.702 79.131 115.702 77.991C115.702 76.8509 116.626 75.9267 117.766 75.9267C118.906 75.9267 119.83 76.8509 119.83 77.991C119.83 79.131 118.906 80.0552 117.766 80.0552Z" fill="#AB91DF"/>
<path d="M111.95 80.0552C110.81 80.0552 109.885 79.131 109.885 77.991C109.885 76.8509 110.81 75.9267 111.95 75.9267C113.09 75.9267 114.014 76.8509 114.014 77.991C114.014 79.131 113.09 80.0552 111.95 80.0552Z" fill="#AB91DF"/>
<path d="M106.134 80.0552C104.994 80.0552 104.07 79.131 104.07 77.991C104.07 76.8509 104.994 75.9267 106.134 75.9267C107.275 75.9267 108.199 76.8509 108.199 77.991C108.199 79.131 107.275 80.0552 106.134 80.0552Z" fill="#AB91DF"/>
<path d="M20.6333 84.7536H128.009V90.7827H20.6333V84.7536Z" stroke="black" stroke-miterlimit="10"/>
<path d="M87.5992 19.1512H135.258V50.0145H87.5992V19.1512Z" fill="#AA96DA"/>
<path opacity="0.68" d="M18.1207 69.9679H75.5408V76.8584H18.1207V69.9679Z" fill="#F8DA96"/>
<path d="M71.3175 66.8098H75.5408V59.9194H62.3212" stroke="black" stroke-miterlimit="10"/>
<path d="M18.1207 59.9194V66.8098H33.6025" stroke="black" stroke-miterlimit="10"/>
<path d="M62.3215 59.9194H34.6408" stroke="black" stroke-miterlimit="10"/>
<path d="M93.054 16.4237H140.713V47.287H93.054V16.4237Z" stroke="black" stroke-miterlimit="10"/>
<path d="M64.2006 84.3229H84.4412V88.3423H64.2006V84.3229Z" fill="#E2E2E2"/>
</g>
<path d="M21.266 95.9588C21.0706 96.5177 19.174 99.135 18.4624 100.292C17.7509 101.45 16.5568 104.855 17.6043 105.414C18.6518 105.973 20.4078 105.564 20.9637 103.771C21.5195 101.978 23.4069 97.9378 24.0665 97.0522C24.7262 96.1665 21.266 95.9588 21.266 95.9588Z" fill="#F8CDBA"/>
<path d="M92.4639 42.7704C93.3832 41.897 100.826 34.0696 100.899 34.0696C101.592 34.2375 102.047 34.5735 101.543 35.2912C101.348 35.5691 100.169 36.8731 98.7949 38.3452C99.2058 38.6916 99.5003 39.156 99.6384 39.6755C99.7764 40.1949 99.7514 40.7443 99.5667 41.249C99.382 41.7538 99.0466 42.1895 98.6058 42.4972C98.1651 42.8048 97.6404 42.9695 97.103 42.9689C96.8897 42.9667 96.6775 42.939 96.4708 42.8864L95.2889 44.2882L93.5328 43.5736L93.768 43.314L92.4639 42.7704Z" fill="#F8CDBA"/>
<path d="M80.8833 133.392C80.8619 133.783 80.1595 136.992 80.471 137.395C81.036 138.128 85.9193 138.067 86.1606 137.851C86.4019 137.634 86.5637 137.163 86.3683 137.017C86.1728 136.87 84.2549 136.372 84.0045 136.177C83.7541 135.981 83.4395 134.995 83.6044 134.482" fill="#1F161E"/>
<path d="M47.0388 87.3282C44.901 88.8308 23.523 152.027 23.8711 153.029C24.2193 154.031 26.6564 154.586 27.5359 154.031C28.4155 153.475 45.0201 123.402 45.9118 122.51C46.8036 121.619 59.835 108.034 61.6155 102.687C63.396 97.3392 47.0388 87.3282 47.0388 87.3282Z" fill="#1F161E"/>
<path d="M50.0165 83.7367C48.6636 84.4453 44.7331 88.3177 44.7331 92.4376C44.7331 104.076 55.4221 106.425 59.2334 106.358C63.0448 106.291 78.7943 106.947 84.7557 104.941C84.4992 107.198 82.4988 127.562 80.6298 133.492C81.0817 134.329 83.4333 135.068 83.8548 134.714C87.2386 131.965 97.2221 102.928 97.0297 100.888C96.5961 96.2826 52.4933 84.3353 50.0165 83.7367Z" fill="#6D5C96"/>
<path d="M62.9961 63.4918C63.1885 64.3286 58.5892 65.4616 58.3784 64.5607L57.0774 58.9474L61.6951 57.8907L62.9961 63.4918Z" fill="#F8CDBA"/>
<path d="M57.8561 62.3007C57.7401 61.7999 58.4822 59.8148 59.429 59.9033C58.2562 59.7689 57.4133 58.5871 57.0774 58.9474L57.8561 62.3007Z" fill="black"/>
<path d="M60.4828 59.9919C57.0824 59.9919 54.3259 57.2354 54.3259 53.835C54.3259 50.4347 57.0824 47.6782 60.4828 47.6782C63.8831 47.6782 66.6396 50.4347 66.6396 53.835C66.6396 57.2354 63.8831 59.9919 60.4828 59.9919Z" fill="#F8CDBA"/>
<path d="M65.7333 53.466C65.6667 53.1785 66.0602 52.8417 66.6123 52.7137C67.1644 52.5857 67.6659 52.7151 67.7326 53.0026C67.7992 53.2902 67.4057 53.627 66.8536 53.755C66.3015 53.8829 65.8 53.7536 65.7333 53.466Z" fill="#FA9E9F"/>
<path d="M59.4455 54.9225C59.3788 54.635 59.7723 54.2981 60.3244 54.1702C60.8765 54.0422 61.3781 54.1716 61.4448 54.4591C61.5114 54.7467 61.1179 55.0835 60.5658 55.2115C60.0137 55.3394 59.5121 55.2101 59.4455 54.9225Z" fill="#FA9E9F"/>
<path d="M64.0403 52.7203C64.2907 52.9433 65.5093 53.8411 64.6022 54.5313" stroke="#1F161E" stroke-width="0.69" stroke-miterlimit="10" stroke-linecap="round"/>
<path d="M62.8892 56.3088C62.5838 56.3668 62.0371 56.1103 61.7134 55.8324" stroke="#1F161E" stroke-width="0.69" stroke-miterlimit="10" stroke-linecap="round"/>
<path d="M57.4745 52.9158C57.4592 51.5262 62.3303 48.3195 64.6758 49.3182C63.5909 48.3201 62.1839 47.7443 60.7105 47.6957C59.2371 47.647 57.7952 48.1286 56.6468 49.053C55.4984 49.9773 54.7197 51.283 54.4524 52.7328C54.1851 54.1825 54.4469 55.68 55.1901 56.9532C55.8497 56.3637 57.4745 54.2259 57.4745 52.9158Z" fill="black"/>
<path d="M56.1977 55.8598C55.4489 55.8598 54.8418 55.2527 54.8418 54.5039C54.8418 53.755 55.4489 53.1479 56.1977 53.1479C56.9466 53.1479 57.5537 53.755 57.5537 54.5039C57.5537 55.2527 56.9466 55.8598 56.1977 55.8598Z" fill="#F8CDBA"/>
<path d="M92.9586 42.3154C92.305 42.8895 79.3378 55.7102 77.148 56.2416C69.7696 58.0312 45.8934 65.1806 37.7515 71.7254C29.2491 76.9599 20.2215 95.403 20.5483 96.0566C20.8751 96.7101 24.4818 98.2676 25.2179 97.9409C25.9539 97.6141 36.0321 83.6634 37.5896 82.7747C39.1471 81.886 51.2685 75.9032 51.2685 75.9032C50.6974 77.2958 49.0574 83.1962 49.3047 84.0146C49.5521 84.8331 54.8325 88.3849 64.4587 89.2584C65.4421 88.6842 68.3098 72.0552 68.3098 72.0552C70.359 71.139 83.9188 63.9224 86.9056 60.1751C88.063 58.7214 96.8188 45.2655 96.8188 44.5997C96.8188 43.934 92.9586 42.3154 92.9586 42.3154Z" fill="#AA96DA"/>
<path d="M61.9055 75.2558C62.7576 74.9076 68.2578 72.0399 68.2578 72.0399" stroke="#1F161E" stroke-width="0.55" stroke-miterlimit="10" stroke-linecap="round"/>
<path d="M56.9155 62.7191C56.3353 63.4246 52.2246 71.9391 51.2687 76.0071" stroke="#1F161E" stroke-width="0.55" stroke-miterlimit="10" stroke-linecap="round"/>
<path d="M24.3323 152.968C23.9994 153.273 23.1931 154.626 23.1534 155.13C22.9549 157.543 25.5661 161.302 25.9875 161.305C27.2091 161.305 27.8413 160.658 27.8413 159.9C27.8413 159.143 26.9251 158.218 26.9251 157.711C26.9251 157.204 27.0381 154.174 27.1236 153.725" fill="#1F161E"/>
<path d="M101.706 138.087H57.1274V170.593H101.706V138.087Z" fill="#969696"/>
<path d="M146.285 114.869H101.706V170.593H146.285V114.869Z" fill="#969696"/>
<path d="M57.1273 161.305H12.5483V170.592H57.1273V161.305Z" fill="#969696"/>
</g>
</svg>
