<svg width="150" height="184" viewBox="0 0 150 184" fill="none" xmlns="http://www.w3.org/2000/svg">
<mask id="mask0" mask-type="alpha" maskUnits="userSpaceOnUse" x="0" y="0" width="150" height="184">
<rect width="150" height="183.68" fill="#C4C4C4"/>
</mask>
<g mask="url(#mask0)">
<path d="M33.4452 11.8146C69.578 -1.38744 150 12.8164 150 51.2856C150 123.726 71.9139 163.662 33.4448 163.662C-5.02439 163.662 1.40323 101.901 1.40325 90.7565C1.40328 79.6117 9.29778 20.6376 33.4452 11.8146Z" fill="#F1EBFF"/>
<g opacity="0.4">
<path opacity="0.5" d="M116.289 33.6876H32.3525C31.186 33.6876 30.0672 34.151 29.2424 34.9758C28.4175 35.8007 27.9541 36.9194 27.9541 38.086V91.8254H120.688V38.086C120.688 36.9194 120.224 35.8007 119.399 34.9758C118.574 34.151 117.456 33.6876 116.289 33.6876V33.6876Z" fill="#E5E5E5"/>
<path d="M135.213 87.0552C134.073 87.0552 133.149 86.131 133.149 84.991C133.149 83.8509 134.073 82.9267 135.213 82.9267C136.353 82.9267 137.278 83.8509 137.278 84.991C137.278 86.131 136.353 87.0552 135.213 87.0552Z" fill="#AB91DF"/>
<path d="M129.398 87.0552C128.258 87.0552 127.334 86.131 127.334 84.991C127.334 83.8509 128.258 82.9267 129.398 82.9267C130.538 82.9267 131.462 83.8509 131.462 84.991C131.462 86.131 130.538 87.0552 129.398 87.0552Z" fill="#AB91DF"/>
<path d="M123.581 87.0552C122.441 87.0552 121.517 86.131 121.517 84.991C121.517 83.8509 122.441 82.9267 123.581 82.9267C124.721 82.9267 125.646 83.8509 125.646 84.991C125.646 86.131 124.721 87.0552 123.581 87.0552Z" fill="#AB91DF"/>
<path d="M117.766 87.0552C116.626 87.0552 115.702 86.131 115.702 84.991C115.702 83.8509 116.626 82.9267 117.766 82.9267C118.906 82.9267 119.83 83.8509 119.83 84.991C119.83 86.131 118.906 87.0552 117.766 87.0552Z" fill="#AB91DF"/>
<path d="M111.95 87.0552C110.81 87.0552 109.885 86.131 109.885 84.991C109.885 83.8509 110.81 82.9267 111.95 82.9267C113.09 82.9267 114.014 83.8509 114.014 84.991C114.014 86.131 113.09 87.0552 111.95 87.0552Z" fill="#AB91DF"/>
<path d="M106.134 87.0552C104.994 87.0552 104.07 86.131 104.07 84.991C104.07 83.8509 104.994 82.9267 106.134 82.9267C107.275 82.9267 108.199 83.8509 108.199 84.991C108.199 86.131 107.275 87.0552 106.134 87.0552Z" fill="#AB91DF"/>
<path d="M20.6333 91.7536H128.009V97.7827H20.6333V91.7536Z" stroke="black" stroke-miterlimit="10"/>
<path d="M87.5992 26.1512H135.258V57.0145H87.5992V26.1512Z" fill="#AA96DA"/>
<path opacity="0.68" d="M18.1207 76.9679H75.5408V83.8584H18.1207V76.9679Z" fill="#F8DA96"/>
<path d="M71.3175 73.8098H75.5408V66.9194H62.3212" stroke="black" stroke-miterlimit="10"/>
<path d="M18.1207 66.9194V73.8098H33.6025" stroke="black" stroke-miterlimit="10"/>
<path d="M62.3215 66.9194H34.6408" stroke="black" stroke-miterlimit="10"/>
<path d="M93.054 23.4237H140.713V54.287H93.054V23.4237Z" stroke="black" stroke-miterlimit="10"/>
<path d="M64.2006 91.3229H84.4412V95.3423H64.2006V91.3229Z" fill="#E2E2E2"/>
</g>
<path d="M21.266 102.959C21.0706 103.518 19.174 106.135 18.4624 107.292C17.7509 108.45 16.5568 111.855 17.6043 112.414C18.6518 112.973 20.4078 112.564 20.9637 110.771C21.5195 108.978 23.4069 104.938 24.0665 104.052C24.7262 103.166 21.266 102.959 21.266 102.959Z" fill="#F8CDBA"/>
<path d="M92.4639 49.7704C93.3832 48.897 100.826 41.0696 100.899 41.0696C101.592 41.2375 102.047 41.5735 101.543 42.2912C101.348 42.5691 100.169 43.8731 98.7949 45.3452C99.2058 45.6916 99.5003 46.156 99.6384 46.6755C99.7764 47.1949 99.7514 47.7443 99.5667 48.249C99.382 48.7538 99.0466 49.1895 98.6058 49.4972C98.1651 49.8048 97.6404 49.9695 97.103 49.9689C96.8897 49.9667 96.6775 49.939 96.4708 49.8864L95.2889 51.2882L93.5328 50.5736L93.768 50.314L92.4639 49.7704Z" fill="#F8CDBA"/>
<path d="M80.8833 140.392C80.8619 140.783 80.1595 143.992 80.471 144.395C81.036 145.128 85.9193 145.067 86.1606 144.851C86.4019 144.634 86.5637 144.163 86.3683 144.017C86.1728 143.87 84.2549 143.372 84.0045 143.177C83.7541 142.981 83.4395 141.995 83.6044 141.482" fill="#1F161E"/>
<path d="M47.0388 94.3282C44.901 95.8308 23.523 159.027 23.8711 160.029C24.2193 161.031 26.6564 161.586 27.5359 161.031C28.4155 160.475 45.0201 130.402 45.9118 129.51C46.8036 128.619 59.835 115.034 61.6155 109.687C63.396 104.339 47.0388 94.3282 47.0388 94.3282Z" fill="#1F161E"/>
<path d="M50.0165 90.7367C48.6636 91.4453 44.7331 95.3177 44.7331 99.4376C44.7331 111.076 55.4221 113.425 59.2334 113.358C63.0448 113.291 78.7943 113.947 84.7557 111.941C84.4992 114.198 82.4988 134.562 80.6298 140.492C81.0817 141.329 83.4333 142.068 83.8548 141.714C87.2386 138.965 97.2221 109.928 97.0297 107.888C96.5961 103.283 52.4933 91.3353 50.0165 90.7367Z" fill="#6D5C96"/>
<path d="M62.9961 70.4918C63.1885 71.3286 58.5892 72.4616 58.3784 71.5607L57.0774 65.9474L61.6951 64.8907L62.9961 70.4918Z" fill="#F8CDBA"/>
<path d="M57.8561 69.3007C57.7401 68.7999 58.4822 66.8148 59.429 66.9033C58.2562 66.7689 57.4133 65.5871 57.0774 65.9474L57.8561 69.3007Z" fill="black"/>
<path d="M60.4828 66.9919C57.0824 66.9919 54.3259 64.2354 54.3259 60.835C54.3259 57.4347 57.0824 54.6782 60.4828 54.6782C63.8831 54.6782 66.6396 57.4347 66.6396 60.835C66.6396 64.2354 63.8831 66.9919 60.4828 66.9919Z" fill="#F8CDBA"/>
<path d="M65.7333 60.466C65.6667 60.1785 66.0602 59.8417 66.6123 59.7137C67.1644 59.5857 67.6659 59.7151 67.7326 60.0026C67.7992 60.2902 67.4057 60.627 66.8536 60.755C66.3015 60.8829 65.8 60.7536 65.7333 60.466Z" fill="#FA9E9F"/>
<path d="M59.4455 61.9225C59.3788 61.635 59.7723 61.2981 60.3244 61.1702C60.8765 61.0422 61.3781 61.1716 61.4448 61.4591C61.5114 61.7467 61.1179 62.0835 60.5658 62.2115C60.0137 62.3394 59.5121 62.2101 59.4455 61.9225Z" fill="#FA9E9F"/>
<path d="M64.0403 59.7203C64.2907 59.9433 65.5093 60.8411 64.6022 61.5313" stroke="#1F161E" stroke-width="0.69" stroke-miterlimit="10" stroke-linecap="round"/>
<path d="M62.8892 63.3088C62.5838 63.3668 62.0371 63.1103 61.7134 62.8324" stroke="#1F161E" stroke-width="0.69" stroke-miterlimit="10" stroke-linecap="round"/>
<path d="M57.4745 59.9158C57.4592 58.5262 62.3303 55.3195 64.6758 56.3182C63.5909 55.3201 62.1839 54.7443 60.7105 54.6957C59.2371 54.647 57.7952 55.1286 56.6468 56.053C55.4984 56.9773 54.7197 58.283 54.4524 59.7328C54.1851 61.1825 54.4469 62.68 55.1901 63.9532C55.8497 63.3637 57.4745 61.2259 57.4745 59.9158Z" fill="black"/>
<path d="M56.1977 62.8598C55.4489 62.8598 54.8418 62.2527 54.8418 61.5039C54.8418 60.755 55.4489 60.1479 56.1977 60.1479C56.9466 60.1479 57.5537 60.755 57.5537 61.5039C57.5537 62.2527 56.9466 62.8598 56.1977 62.8598Z" fill="#F8CDBA"/>
<path d="M92.9586 49.3154C92.305 49.8895 79.3378 62.7102 77.148 63.2416C69.7696 65.0312 45.8934 72.1806 37.7515 78.7254C29.2491 83.9599 20.2215 102.403 20.5483 103.057C20.8751 103.71 24.4819 105.268 25.2179 104.941C25.9539 104.614 36.0321 90.6634 37.5896 89.7747C39.1471 88.886 51.2685 82.9032 51.2685 82.9032C50.6974 84.2958 49.0574 90.1962 49.3047 91.0146C49.5521 91.8331 54.8325 95.3849 64.4587 96.2584C65.4421 95.6842 68.3098 79.0552 68.3098 79.0552C70.359 78.139 83.9188 70.9224 86.9056 67.1751C88.063 65.7214 96.8188 52.2655 96.8188 51.5997C96.8188 50.934 92.9586 49.3154 92.9586 49.3154Z" fill="#AA96DA"/>
<path d="M61.9055 82.2558C62.7576 81.9076 68.2578 79.0399 68.2578 79.0399" stroke="#1F161E" stroke-width="0.55" stroke-miterlimit="10" stroke-linecap="round"/>
<path d="M56.9155 69.7191C56.3353 70.4246 52.2246 78.9391 51.2687 83.0071" stroke="#1F161E" stroke-width="0.55" stroke-miterlimit="10" stroke-linecap="round"/>
<path d="M24.3323 159.968C23.9994 160.273 23.1931 161.626 23.1534 162.13C22.9549 164.543 25.5661 168.302 25.9875 168.305C27.2091 168.305 27.8413 167.658 27.8413 166.9C27.8413 166.143 26.9251 165.218 26.9251 164.711C26.9251 164.204 27.0381 161.174 27.1236 160.725" fill="#1F161E"/>
<path d="M101.706 145.087H57.1274V177.593H101.706V145.087Z" fill="#969696"/>
<path d="M146.285 121.869H101.706V177.593H146.285V121.869Z" fill="#969696"/>
<path d="M57.1273 168.305H12.5483V177.592H57.1273V168.305Z" fill="#969696"/>
</g>
</svg>
