<svg width="29" height="29" viewBox="0 0 29 29" fill="none" xmlns="http://www.w3.org/2000/svg">
<path d="M26.5378 17.3646C26.3033 16.7846 25.643 16.5043 25.063 16.7389C24.4829 16.9734 24.2028 17.6337 24.4372 18.2137L25.7714 21.5139L21.809 19.7672C21.5221 19.6408 21.1957 19.6388 20.9074 19.7618C19.5532 20.3396 18.1026 20.6326 16.5957 20.6326C10.531 20.6326 6.45706 15.8841 6.45706 11.4491C6.45706 6.38531 11.0052 2.26562 16.5957 2.26562C22.1862 2.26562 26.7344 6.38531 26.7344 11.4491C26.7344 11.8442 26.6975 12.3172 26.6335 12.7469C26.5412 13.3657 26.9679 13.9421 27.5867 14.0344C28.2056 14.127 28.782 13.7 28.8743 13.0812C28.9553 12.538 29 11.9583 29 11.4491C29 8.37181 27.6969 5.48439 25.3306 3.31874C22.9924 1.17863 19.8903 0 16.5957 0C13.3012 0 10.1991 1.17863 7.86078 3.31868C5.74627 5.25397 4.48161 7.76587 4.2363 10.4744C1.57663 12.2357 3.77702e-05 15.058 3.77702e-05 18.0981C3.77702e-05 19.9971 0.598332 21.799 1.7372 23.3496L0.0826196 27.4426C-0.0901906 27.87 0.0132917 28.3595 0.344355 28.6804C0.560099 28.8897 0.844378 29 1.13307 29C1.28731 28.9999 1.44284 28.9685 1.58977 28.9037L6.36054 26.8006C7.56064 27.2474 8.82922 27.4735 10.1386 27.4735C10.167 27.4735 10.1948 27.4713 10.2226 27.4693C12.1165 27.455 13.9577 26.9568 15.5523 26.0246C16.9807 25.1895 18.1556 24.0423 18.9794 22.6875C19.7836 22.543 20.5697 22.3249 21.3326 22.0332L27.4102 24.7123C27.5572 24.7771 27.7127 24.8086 27.8669 24.8086C28.1556 24.8085 28.4399 24.6982 28.6557 24.489C28.9867 24.1681 29.0902 23.6786 28.9174 23.2512L26.5378 17.3646ZM10.1387 25.205C10.1233 25.205 10.1082 25.2067 10.0929 25.2074C8.93616 25.2015 7.82283 24.9741 6.78308 24.5305C6.49484 24.4074 6.16842 24.4094 5.88159 24.5359L3.22872 25.7053L4.0845 23.5883C4.2427 23.197 4.17014 22.7501 3.89634 22.4289C2.82951 21.1773 2.26566 19.6798 2.26566 18.0981C2.26566 16.2878 3.02719 14.5725 4.3596 13.2719C4.77444 15.5333 5.94491 17.6965 7.71057 19.3959C9.90771 21.5104 12.8139 22.7354 15.9521 22.8829C14.4788 24.3332 12.3704 25.205 10.1387 25.205Z" fill="#9C9C9C"/>
<path d="M16.5388 12.6308C17.1644 12.6308 17.6716 12.1237 17.6716 11.498C17.6716 10.8724 17.1644 10.3652 16.5388 10.3652C15.9132 10.3652 15.406 10.8724 15.406 11.498C15.406 12.1237 15.9132 12.6308 16.5388 12.6308Z" fill="#9C9C9C"/>
<path d="M21.07 12.6308C21.6956 12.6308 22.2028 12.1237 22.2028 11.498C22.2028 10.8724 21.6956 10.3652 21.07 10.3652C20.4444 10.3652 19.9372 10.8724 19.9372 11.498C19.9372 12.1237 20.4444 12.6308 21.07 12.6308Z" fill="#9C9C9C"/>
<path d="M12.0076 12.6308C12.6332 12.6308 13.1404 12.1237 13.1404 11.498C13.1404 10.8724 12.6332 10.3652 12.0076 10.3652C11.3819 10.3652 10.8748 10.8724 10.8748 11.498C10.8748 12.1237 11.3819 12.6308 12.0076 12.6308Z" fill="#9C9C9C"/>
</svg>
