<svg width="150" height="170" viewBox="0 0 150 170" fill="none" xmlns="http://www.w3.org/2000/svg">
<mask id="mask0" mask-type="alpha" maskUnits="userSpaceOnUse" x="0" y="0" width="150" height="170">
<rect width="150" height="170" fill="white"/>
</mask>
<g mask="url(#mask0)">
<path d="M35.7858 15.0787C69.5988 -5.61256 148.854 28.5928 148.854 86.2532C148.854 134.003 117.699 116.885 80.3811 116.885C43.0628 116.885 14.6123 161.932 5.60415 134.454C-6.60428 97.2127 5.60384 33.548 35.7858 15.0787Z" fill="#DFFAF0"/>
<path d="M-16.3934 65.6477C-16.1987 65.442 -15.9582 65.2217 -15.6706 64.9902C-14.6989 64.2077 -13.3092 63.3905 -11.7078 62.646C-8.48455 61.1477 -4.64166 60.0521 -2.02199 60.0521C0.712683 60.0521 2.49201 60.2858 3.73104 60.6125C4.94674 60.933 5.67287 61.3506 6.30356 61.7785C6.43325 61.8665 6.56728 61.9617 6.70704 62.0609C7.227 62.4302 7.82619 62.8558 8.57617 63.1761C9.56849 63.5999 10.8078 63.8498 12.6517 63.8498C15.048 63.8498 16.9057 62.5666 18.4744 60.8909C19.7043 59.5772 20.8547 57.9105 22.0015 56.249C22.2976 55.8201 22.5933 55.3916 22.8902 54.9696C25.8701 50.7331 29.0981 46.9387 34.6178 46.9387C37.7038 46.9387 39.8314 47.8895 41.4463 49.2809C43.0944 50.7008 44.2622 52.6241 45.331 54.672C45.5741 55.1377 45.8146 55.616 46.0561 56.0965C46.8412 57.6579 47.6378 59.2424 48.5728 60.4939C49.8444 62.1962 51.5072 63.48 53.9686 63.48C55.709 63.48 57.068 63.1117 58.4058 62.7492C58.5381 62.7133 58.6702 62.6775 58.8025 62.6421C60.2663 62.2505 61.8581 61.8722 64.2286 61.8722C65.3679 61.8722 66.6505 62.4403 67.6642 63.3857C68.3817 64.055 68.8992 64.8513 69.1404 65.6602L-16.3934 65.6477Z" fill="white" stroke="#FAFAFA" stroke-width="2"/>
<path d="M171.547 36.8276C171.395 36.6688 171.2 36.5081 170.954 36.3454C170.174 35.8298 169.038 35.4077 167.706 35.0815C165.055 34.4326 161.931 34.2349 160.159 34.2349C156.214 34.2349 154.065 33.0589 152.182 31.9366C152.103 31.8894 152.024 31.8424 151.946 31.7957C150.245 30.7784 148.81 29.9203 146.168 29.9203C143.766 29.9203 141.943 30.9009 139.949 32.0199C139.892 32.0515 139.836 32.0833 139.779 32.1152C137.873 33.186 135.757 34.3753 133.029 34.3753C127.206 34.3753 123.65 30.9134 120.43 27.7795L120.41 27.7604C117.117 24.5553 114.177 21.7122 109.405 21.7122C104.627 21.7122 102.37 24.595 99.9244 27.9149C99.8596 28.0029 99.7945 28.0914 99.7293 28.1801C97.3924 31.3587 94.7657 34.9315 89.3883 34.9315C86.8954 34.9315 78.0919 35.1734 69.9162 35.7806C66.2243 36.0548 62.6855 36.4017 59.9223 36.83L171.547 36.8276Z" fill="white" stroke="#FAFAFA" stroke-width="2"/>
<path d="M19.6947 157.85C19.5757 158.152 18.7889 159.902 18.9277 160.303C19.1812 161.028 23.049 162.26 23.2958 162.154C23.5426 162.048 23.7939 161.713 23.6771 161.55C23.5603 161.387 22.1806 160.494 22.033 160.274C21.8853 160.054 21.8986 159.194 22.1652 158.833" fill="#1F161E"/>
<path d="M36.8297 96.9241C37.8082 97.8056 51.9857 110.368 51.9857 116.968C51.9857 118.965 47.9526 148.23 47.4986 148.825H43.9945C43.9945 148.825 42.4518 124.444 43.6793 119.679C42.7691 119.293 34.4231 116.386 30.7206 113.27C27.0181 110.154 29.6671 98.1626 36.8297 96.9241Z" fill="#1F161E"/>
<path d="M36.8298 96.9241C37.9317 97.118 22.6964 158.919 22.6964 158.919H18.9124C18.9124 158.919 20.3493 100.426 21.1735 97.5786C25.0986 96.3973 33.8656 96.3973 36.8298 96.9241Z" fill="#50B89D"/>
<path d="M16.5256 73.2215C20.5631 70.3741 34.3769 70.3741 48.6888 70.9449C50.3814 71.0133 55.1836 60.8491 57.231 59.4033C59.4855 57.8121 63.0778 59.2491 63.0778 60.0953C63.0778 61.9422 60.5169 61.9862 59.9748 62.5835C59.4326 63.1807 54.5886 77.4001 50.4982 79.4937C49.1759 80.1725 39.3951 79.9477 38.7119 80.8315C38.0287 81.7152 37.4028 96.3753 36.832 96.9197C36.2612 97.464 22.7405 97.9158 21.1846 97.5808C21.0987 96.4414 19.2783 86.9913 18.8221 86.2508C18.5708 86.2287 14.9323 92.329 14.9345 93.0982C14.9345 94.1119 21.1604 102.606 23.7697 104.06C24.4463 104.435 24.3472 105.502 24.2237 105.762C24.1003 106.022 23.1681 107.304 22.5863 107.304C22.0044 107.304 8.43527 99.1566 8.12893 93.0166C8.04739 91.3571 11.3223 76.902 16.5256 73.2215Z" fill="#A8E6CF"/>
<path d="M44.4639 148.453C44.4639 148.777 44.3537 150.694 44.6292 151.018C45.1251 151.602 49.1758 151.368 49.3675 151.181C49.5592 150.994 49.6782 150.595 49.5085 150.48C49.3388 150.366 47.7322 150.024 47.5251 149.872C47.3179 149.72 47.0138 148.911 47.1306 148.479" fill="#1F161E"/>
<path d="M28.5653 72.3135C28.6403 73.1819 23.8711 73.6535 23.7918 72.7213L23.2981 66.9163L28.0717 66.5108L28.5653 72.3135Z" fill="#F8CDBA"/>
<path d="M23.5934 70.383C23.5493 69.8673 24.5785 67.9874 25.5129 68.21C24.3581 67.908 23.6859 66.6033 23.3091 66.9163L23.5934 70.383Z" fill="black"/>
<path d="M27.4415 68.5141C30.8787 68.5141 33.6652 65.7276 33.6652 62.2904C33.6652 58.8531 30.8787 56.0667 27.4415 56.0667C24.0042 56.0667 21.2178 58.8531 21.2178 62.2904C21.2178 65.7276 24.0042 68.5141 27.4415 68.5141Z" fill="#F8CDBA"/>
<path d="M33.8301 63.1253C34.4013 63.0767 34.8438 62.7963 34.8185 62.4992C34.7932 62.2021 34.3096 62.0007 33.7384 62.0493C33.1672 62.098 32.7246 62.3783 32.7499 62.6754C32.7753 62.9726 33.2588 63.174 33.8301 63.1253Z" fill="#FA9E9F"/>
<path d="M27.3239 63.68C27.8952 63.6314 28.3377 63.351 28.3124 63.0539C28.2871 62.7568 27.8035 62.5554 27.2323 62.604C26.6611 62.6527 26.2185 62.933 26.2438 63.2302C26.2692 63.5273 26.7527 63.7287 27.3239 63.68Z" fill="#FA9E9F"/>
<path d="M31.1636 61.6865C31.384 61.9466 32.4727 63.0198 31.4633 63.5796" stroke="#1F161E" stroke-width="1.08" stroke-miterlimit="10" stroke-linecap="round"/>
<path d="M29.493 65.1113C29.1823 65.1267 28.671 64.7917 28.3911 64.4656" stroke="#1F161E" stroke-width="1.08" stroke-miterlimit="10" stroke-linecap="round"/>
<path d="M21.2065 59.1807C21.0236 57.0276 23.8886 55.1697 25.9779 54.9934C29.3013 54.7091 31.1636 54.784 32.9862 54.1824C35.5956 53.3229 35.5471 56.827 35.5823 57.2259C35.7234 58.903 35.2011 59.9962 33.3785 60.4193C33.2037 59.8397 32.9381 59.2915 32.5917 58.795C32.0609 58.6402 31.4925 58.6785 30.9873 58.903C30.5311 59.108 26.7537 61.2964 23.8424 61.5477C23.5008 62.1229 22.9322 65.5323 23.3046 66.9185C22.4539 67.0397 20.6468 64.3995 20.4396 62.9515C20.3781 62.4553 20.4337 61.9516 20.6021 61.4809C20.7705 61.0101 21.047 60.5854 21.4093 60.2408C21.352 59.9366 21.222 59.3504 21.2065 59.1807Z" fill="black"/>
<path d="M23.686 64.2783C24.4431 64.2783 25.0568 63.6645 25.0568 62.9075C25.0568 62.1504 24.4431 61.5367 23.686 61.5367C22.9289 61.5367 22.3152 62.1504 22.3152 62.9075C22.3152 63.6645 22.9289 64.2783 23.686 64.2783Z" fill="#F8CDBA"/>
<path d="M23.7586 104.058C21.1492 102.603 14.9255 94.1097 14.9233 93.096C14.9233 92.6023 16.4153 89.9202 17.5547 88.0624L10.2644 84.1196C8.85829 88.307 8.08915 92.2034 8.13102 93.0166C8.43515 99.1566 21.9933 107.291 22.5751 107.291C23.157 107.291 24.0892 106.019 24.2126 105.748C24.336 105.477 24.4374 104.433 23.7586 104.058Z" fill="#F8CDBA"/>
<path d="M57.2307 59.4121C55.1833 60.8579 50.3811 71.0177 48.6797 70.9538C45.7992 70.8392 47.4588 70.8965 44.6951 70.848L44.6797 80.0094C47.8863 80.0094 49.5745 79.9676 50.4869 79.5025C54.5794 77.4089 59.4257 63.194 59.9635 62.5923C60.5012 61.9906 63.0665 61.951 63.0665 60.1041C63.0775 59.2579 59.4786 57.8209 57.2307 59.4121Z" fill="#F8CDBA"/>
<path d="M126.184 133.947C126.229 134.293 126.59 136.31 126.339 136.688C125.889 137.373 121.563 137.643 121.336 137.467C121.109 137.29 120.932 136.887 121.098 136.743C121.264 136.598 122.924 136.034 123.134 135.843C123.344 135.652 123.558 134.76 123.374 134.317" fill="#1F161E"/>
<path d="M106.076 131.277C106.12 131.621 106.479 133.639 106.231 134.017C105.781 134.701 101.455 134.97 101.227 134.796C101 134.622 100.824 134.217 100.99 134.072C101.155 133.928 102.815 133.361 103.025 133.17C103.236 132.979 103.45 132.088 103.265 131.646" fill="#1F161E"/>
<path d="M113.149 78.4187C112.832 79.3697 107.678 107.95 107.354 109.5C107.029 111.049 102.081 130.534 102.509 131.179C102.938 131.824 105.955 132.686 106.708 132.255C107.462 131.824 120.595 102.537 121.567 98.8861C122.54 95.235 121.567 76.1411 121.567 76.1411L113.149 78.4187Z" fill="#1F161E"/>
<path d="M117.08 78.631C117.279 80.1955 120.302 105.989 121.191 110.064C122.081 114.14 121.266 133.839 121.924 134.147C122.773 134.847 127.184 134.847 127.184 134.847C127.984 134.147 130.814 80.5436 130.814 80.5436C130.814 80.5436 123.783 74.2306 117.08 78.631Z" fill="#50B89D"/>
<path d="M119.676 57.8368C119.676 58.3887 122.72 58.4205 122.718 57.8368V54.139H119.676V57.8368Z" fill="#F8CDBA"/>
<path d="M122.714 56.3381C122.714 56.0091 121.714 54.6039 121.134 54.7949C121.85 54.5402 122.444 53.9458 122.707 54.1305L122.714 56.3381Z" fill="#1F161E"/>
<path d="M119.763 55.5973C121.945 55.5973 123.713 53.8287 123.713 51.6469C123.713 49.4652 121.945 47.6965 119.763 47.6965C117.581 47.6965 115.812 49.4652 115.812 51.6469C115.812 53.8287 117.581 55.5973 119.763 55.5973Z" fill="#F8CDBA"/>
<path d="M116.044 53.2401C116.405 53.2037 116.682 53.0217 116.663 52.8337C116.644 52.6456 116.336 52.5228 115.975 52.5592C115.614 52.5957 115.337 52.7777 115.356 52.9657C115.375 53.1537 115.683 53.2766 116.044 53.2401Z" fill="#FA9E9F"/>
<path d="M120.275 52.8147C120.638 52.7771 120.916 52.5934 120.896 52.4045C120.877 52.2156 120.567 52.093 120.204 52.1306C119.841 52.1683 119.563 52.352 119.583 52.5409C119.603 52.7298 119.912 52.8524 120.275 52.8147Z" fill="#FA9E9F"/>
<path d="M117.647 52.0269C117.541 52.2137 116.989 53.0139 117.683 53.2432" stroke="#1F161E" stroke-width="0.69" stroke-miterlimit="10" stroke-linecap="round"/>
<path d="M119.094 53.9586C119.29 53.9331 119.57 53.6635 119.708 53.4258" stroke="#1F161E" stroke-width="0.69" stroke-miterlimit="10" stroke-linecap="round"/>
<path d="M122.958 52.0269C123.438 52.0269 123.828 51.6372 123.828 51.1566C123.828 50.6759 123.438 50.2862 122.958 50.2862C122.477 50.2862 122.087 50.6759 122.087 51.1566C122.087 51.6372 122.477 52.0269 122.958 52.0269Z" fill="#F8CDBA"/>
<path d="M122.363 51.925C122.363 53.0819 123.637 53.8354 124.074 53.8354C124.144 53.8449 124.214 53.8389 124.281 53.8179C124.348 53.7969 124.41 53.7615 124.461 53.7141C124.513 53.6667 124.554 53.6084 124.58 53.5436C124.607 53.4787 124.619 53.4088 124.616 53.3387C124.616 52.8547 124.329 52.4387 123.73 51.9144C123.834 51.7339 124.616 50.7808 124.616 49.4371C124.616 48.0149 123.743 46.8241 123.159 46.8241C122.91 46.8408 122.672 46.9399 122.485 47.1058C122.297 47.2717 122.17 47.4952 122.123 47.7411C122.123 45.7542 120.001 44.332 118.727 44.332C117.547 44.332 117.345 44.8457 117.345 45.2639C117.345 46.1766 118.065 47.1552 118.336 47.3866C117.676 46.9005 116.638 46.4101 115.753 46.4101C115.193 46.4101 114.479 46.5693 114.479 47.342C114.479 48.7579 115.806 49.5772 116.25 49.8065C116.419 49.4762 116.633 49.1712 116.887 48.9001C116.806 49.1676 117.133 49.6537 117.759 49.764C118.118 49.8426 122.363 49.2694 122.363 51.925Z" fill="#1F161E"/>
<path d="M111.425 45.8073C110.733 45.5859 110.054 45.3251 109.392 45.0261C109.097 44.8521 110.364 42.7187 110.952 42.101C111.54 41.4833 112.754 41.167 113.389 41.7189C114.023 42.2708 113.631 43.6294 111.425 45.8073Z" fill="#F8CDBA"/>
<path d="M128.782 57.4695C132.673 59.6899 137.203 72.8996 137.203 73.9122C137.203 74.9247 128.925 90.0853 128.428 90.0853C128.003 89.6331 126.205 87.4913 126.205 87.4913C126.655 86.8014 129.602 80.1657 129.706 79.8877C128.988 80.0065 113.862 80.5054 112.588 79.9471C111.315 79.3888 111.811 65.0392 111.474 64.5616C111.136 64.084 102.1 63.4174 100.985 61.7044C101.444 53.2432 108.805 45.1259 109.345 44.9072C109.884 44.6886 111.633 45.2851 111.711 45.6799C111.499 46.2361 107.513 56.6459 107.871 57.1426C109.742 56.9495 127.161 56.5419 128.782 57.4695Z" fill="#A8E6CF"/>
<path d="M126.768 66.5548C127.135 67.2086 130.854 73.5407 130.814 74.0714C130.774 74.6021 130.281 78.2701 129.706 79.8771" stroke="#1F161E" stroke-width="0.55" stroke-miterlimit="10" stroke-linecap="round"/>
<path d="M111.537 64.6741C111.485 63.448 111.55 62.2198 111.731 61.006" stroke="#1F161E" stroke-width="0.55" stroke-miterlimit="10" stroke-linecap="round"/>
<path d="M102.673 46.3821L104.609 48.6334L102.349 48.3058L102.673 46.3821Z" fill="#97D7CB"/>
<path d="M88.6957 49.8415H99.8387C101.544 49.8415 102.926 48.4788 102.926 46.7977V45.3788C102.926 43.6977 101.544 42.3349 99.8387 42.3349H88.6957C86.9906 42.3349 85.6083 43.6977 85.6083 45.3788V46.7977C85.6083 48.4788 86.9906 49.8415 88.6957 49.8415Z" fill="#97D7CB"/>
<path d="M96.5812 46.7506C96.9523 46.7506 97.253 46.454 97.253 46.0882C97.253 45.7224 96.9523 45.4259 96.5812 45.4259C96.2102 45.4259 95.9094 45.7224 95.9094 46.0882C95.9094 46.454 96.2102 46.7506 96.5812 46.7506Z" fill="white"/>
<path d="M94.2673 46.7506C94.6383 46.7506 94.9391 46.454 94.9391 46.0882C94.9391 45.7224 94.6383 45.4259 94.2673 45.4259C93.8962 45.4259 93.5955 45.7224 93.5955 46.0882C93.5955 46.454 93.8962 46.7506 94.2673 46.7506Z" fill="white"/>
<path d="M91.9535 46.7506C92.3246 46.7506 92.6254 46.454 92.6254 46.0882C92.6254 45.7224 92.3246 45.4259 91.9535 45.4259C91.5825 45.4259 91.2817 45.7224 91.2817 46.0882C91.2817 46.454 91.5825 46.7506 91.9535 46.7506Z" fill="white"/>
<path d="M45.1904 55.7092L47.0752 51.4751L48.1208 54.8832L45.1904 55.7092Z" fill="#97D7CB"/>
<path d="M69.3314 45.0377H51.9401C49.2789 45.0377 47.1216 47.1647 47.1216 49.7884V52.0029C47.1216 54.6266 49.2789 56.7536 51.9401 56.7536H69.3314C71.9926 56.7536 74.1499 54.6266 74.1499 52.0029V49.7884C74.1499 47.1647 71.9926 45.0377 69.3314 45.0377Z" fill="#97D7CB"/>
<path d="M57.0242 49.8619C56.4452 49.8619 55.9757 50.3247 55.9757 50.8956C55.9757 51.4666 56.4452 51.9294 57.0242 51.9294C57.6033 51.9294 58.0728 51.4666 58.0728 50.8956C58.0728 50.3247 57.6033 49.8619 57.0242 49.8619Z" fill="white"/>
<path d="M60.6358 49.8619C60.0567 49.8619 59.5873 50.3247 59.5873 50.8956C59.5873 51.4666 60.0567 51.9294 60.6358 51.9294C61.2149 51.9294 61.6843 51.4666 61.6843 50.8956C61.6843 50.3247 61.2149 49.8619 60.6358 49.8619Z" fill="white"/>
<path d="M64.2471 49.8619C63.6681 49.8619 63.1986 50.3247 63.1986 50.8956C63.1986 51.4666 63.6681 51.9294 64.2471 51.9294C64.8262 51.9294 65.2957 51.4666 65.2957 50.8956C65.2957 50.3247 64.8262 49.8619 64.2471 49.8619Z" fill="white"/>
</g>
</svg>
