<svg width="150" height="168" viewBox="0 0 150 168" fill="none" xmlns="http://www.w3.org/2000/svg">
<mask id="mask0" mask-type="alpha" maskUnits="userSpaceOnUse" x="0" y="0" width="150" height="168">
<rect width="150" height="167.31" fill="#C4C4C4"/>
</mask>
<g mask="url(#mask0)">
<path d="M94.0371 7.3381C137.066 28.0114 145.764 67.5204 138.898 96.9225C132.031 126.325 119.672 137.81 102.735 139.647C51.7834 145.175 24 84.4462 24 46.3877C24 8.32915 54.2121 -11.7957 94.0371 7.3381Z" fill="#FFFAC9"/>
<path d="M76.6446 41.6487C76.7075 41.6016 76.7761 41.5539 76.8506 41.5057C77.5156 41.0753 78.4939 40.7176 79.6548 40.4395C81.9621 39.8868 84.685 39.7179 86.2295 39.7179C89.7058 39.7179 91.605 38.7014 93.2613 37.7353C93.3303 37.6951 93.3987 37.6551 93.4665 37.6154C94.9516 36.7464 96.1843 36.0251 98.4646 36.0251C100.535 36.0251 102.106 36.8504 103.85 37.8081C103.901 37.8361 103.952 37.8642 104.003 37.8925C105.668 38.8077 107.541 39.838 109.954 39.838C115.091 39.838 118.232 36.8459 121.046 34.1654L121.07 34.1431C123.951 31.3981 126.49 29 130.614 29C134.733 29 136.674 31.4206 138.81 34.2583C138.868 34.3353 138.926 34.4127 138.984 34.4904C141.027 37.2102 143.359 40.3141 148.119 40.3141C150.296 40.3141 157.992 40.521 165.139 41.0405C167.477 41.2105 169.744 41.413 171.732 41.6507L76.6446 41.6487Z" fill="white" stroke="#FAFAFA" stroke-width="2"/>
<path d="M75.3573 24.3156C75.2016 24.1579 75.0177 23.9911 74.8049 23.8168C73.9204 23.0927 72.652 22.3339 71.1869 21.6415C68.2355 20.2466 64.7247 19.2311 62.3417 19.2311C59.838 19.2311 58.2147 19.4486 57.0888 19.7504C55.9864 20.046 55.3295 20.4301 54.7565 20.8253C54.6401 20.9056 54.5189 20.9932 54.3919 21.0849C53.9144 21.4298 53.3546 21.8341 52.6568 22.137C51.7316 22.5387 50.5809 22.7732 48.88 22.7732C46.6421 22.7732 44.916 21.554 43.4722 19.986C42.34 18.7564 41.2807 17.1961 40.2283 15.6459C39.9572 15.2465 39.6865 14.8478 39.4151 14.4556C36.6775 10.4987 33.7383 7 28.7282 7C25.9211 7 23.9905 7.87806 22.5237 9.1629C21.0229 10.4775 19.9563 12.2612 18.9761 14.1708C18.7543 14.603 18.5344 15.0475 18.3133 15.4947C17.5926 16.9521 16.8581 18.4373 15.9966 19.6098C14.8238 21.206 13.276 22.4283 10.9756 22.4283C9.36524 22.4283 8.1065 22.0814 6.87997 21.7434C6.75829 21.7099 6.63694 21.6764 6.51559 21.6434C5.17635 21.2791 3.72536 20.9287 1.56297 20.9287C0.548843 20.9287 -0.606758 21.4445 -1.52644 22.3166C-2.15271 22.9105 -2.60994 23.6123 -2.83754 24.3272L75.3573 24.3156Z" fill="white" stroke="#FAFAFA" stroke-width="2"/>
<path d="M43.6746 164C43.8914 162.693 44.0003 161.37 44 160.045C44 149.526 37.2841 141 28.9981 141C20.7121 141 14 149.526 14 160.045C13.9997 161.37 14.1086 162.693 14.3254 164H43.6746Z" fill="#99574A"/>
<path d="M33.6382 19C45.276 19 49.2038 26.89 49.2038 32.3731C49.2038 43.8079 46.7282 41.2579 46.7282 53.0759C46.7282 65.7771 63 81.8145 63 103.752C63 133.743 36.8228 138.14 33.6382 138.14C17.1319 138.14 11 119.975 11 108.955C11 95.8994 22.4977 81.9231 22.4977 69.3391C22.4977 60.134 19.4904 56.5578 19.4904 42.2871C19.4904 27.9363 27.8035 19 33.6382 19Z" fill="#73E5BC"/>
<path d="M32.7688 162.985V37.8845" stroke="#FBDC8E" stroke-width="3" stroke-miterlimit="10" stroke-linecap="round"/>
<path d="M32.7688 119.078L52.1509 99.2124" stroke="#FBDC8E" stroke-width="3" stroke-miterlimit="10" stroke-linecap="round"/>
<path d="M32.2862 63.3298L26.0427 57.0864" stroke="#FBDC8E" stroke-width="3" stroke-miterlimit="10" stroke-linecap="round"/>
<path d="M32.7688 46.5834L41.485 37.8701" stroke="#FBDC8E" stroke-width="3" stroke-miterlimit="10" stroke-linecap="round"/>
<path d="M78.5511 57.1073C89.2613 62.0189 90.4275 80.0937 88.4679 84.1315C85.3348 90.5781 73.9749 99.881 70.9073 106.317C69.591 109.078 58.4592 137.888 48.1622 134.492C39.0123 131.456 34.0422 118.184 39.2437 108.975C46.9144 95.3559 50.043 77.1742 52.7607 72.3213C56.3477 65.9341 68.1384 52.3309 78.5511 57.1073Z" fill="#50B89D"/>
<path d="M44.2461 162.034C44.2661 155.429 48.4222 102.59 67.4958 81.0563" stroke="#FBDC8E" stroke-width="3" stroke-miterlimit="10" stroke-linecap="round"/>
<path d="M60.6972 91.0487L56.6284 75.2904" stroke="#FBDC8E" stroke-width="3" stroke-miterlimit="10" stroke-linecap="round"/>
<path d="M39 163.988C39 160.099 45.9309 146.558 57.7541 146.558C69.3041 146.558 71.9583 150.866 81.5432 150.866C88.7024 150.866 88.2131 147.994 94.932 147.994C108.659 147.994 114 159.074 114 164L39 163.988Z" fill="#B37361"/>
<path d="M103.364 102.058C102.797 103.756 97.3007 126.097 96.2374 127.179C95.174 128.262 65.4009 143.677 65.4009 143.677L67.4149 148.788C67.4149 148.788 98.6152 138.826 100.231 137.943C101.846 137.059 114.145 126.27 116.023 121.735C117.9 117.2 105.53 101.989 103.364 102.058Z" fill="#1F161E"/>
<path d="M133.25 162.925C133.25 163.441 132.949 166.676 133.549 166.977C134.149 167.278 140.741 167.456 141.042 167.157C141.343 166.858 141.52 166.228 141.258 166.048C140.996 165.869 138.443 165.357 138.097 165.119C137.75 164.881 137.271 163.603 137.447 162.925" fill="#1F161E"/>
<path d="M65.6281 144.169C65.1539 144.366 62.0484 145.33 62.0007 145.999C61.9531 146.668 64.3158 152.825 64.7078 152.987C65.0997 153.15 65.7494 153.074 65.8122 152.756C65.875 152.437 65.3704 149.89 65.4657 149.486C65.561 149.081 66.5485 148.145 67.2415 148.048" fill="#1F161E"/>
<path d="M132.106 89.309C131.457 89.4952 126.331 90.773 125.8 90.773C125.27 90.773 124.522 95.9293 125.055 95.8795C125.588 95.8297 132.319 93.8048 133.995 93.6468C135.671 93.4887 132.106 89.309 132.106 89.309Z" fill="#F8CDBA"/>
<path d="M113.326 66.9748C117.155 66.6131 124.228 68.4539 126.452 69.7295C130.84 72.2351 125.781 104.629 123.505 107.039C121.469 107.843 104.231 103.791 103.364 102.058C103.823 98.5822 110.66 86.5803 111.31 85.9306C110.877 85.4975 108.928 83.1153 108.928 83.1153C108.928 83.1153 110.682 80.7612 110.877 80.6291C110.318 80.2566 104.735 75.8452 104.425 75.5984C105.543 73.9438 112.04 67.0896 113.326 66.9748Z" fill="#F9ED69"/>
<path d="M118.827 95.0999C118.526 94.3636 109.272 83.5397 108.936 83.1066C109.443 82.4028 110.279 81.3264 110.964 80.5078C108.324 78.5804 105.489 76.3931 104.467 75.5096C104.45 75.5318 104.434 75.5549 104.419 75.5789C103.958 76.1289 99.8408 82.2923 99.8408 83.1586C99.8408 84.0248 112.436 96.2867 114.006 96.8887C115.576 97.4908 119.126 95.834 118.827 95.0999Z" fill="#F8CDBA"/>
<path d="M120.373 98.6671C121.387 97.1155 120.832 94.9566 119.132 93.8452C117.432 92.7337 115.232 93.0906 114.217 94.6422C113.203 96.1938 113.758 98.3526 115.458 99.4641C117.158 100.575 119.358 100.219 120.373 98.6671Z" fill="#F8CDBA"/>
<path d="M133.592 94.2488C135.243 94.2488 136.581 92.9108 136.581 91.2602C136.581 89.6097 135.243 88.2717 133.592 88.2717C131.942 88.2717 130.604 89.6097 130.604 91.2602C130.604 92.9108 131.942 94.2488 133.592 94.2488Z" fill="#F8CDBA"/>
<path d="M123.505 107.039C123.505 107.039 132.265 124.226 133.605 127.799C134.946 131.372 138.216 163.149 138.216 163.149C138.216 163.149 133.85 163.664 132.678 163.149C131.507 162.633 126.638 139.517 123.955 134.79C119.873 127.582 97.686 114.151 103.364 102.058" fill="#FFD365"/>
<path d="M116.949 68.7376C116.847 69.3007 121.428 70.1215 121.53 69.5584L122.552 63.8563L117.971 63.0355L116.949 68.7376Z" fill="#F8CDBA"/>
<path d="M120.965 65.3766C120.519 65.2964 117.432 66.0479 117.307 66.7518L117.972 63.0355C118.684 63.1633 120.965 65.3766 120.965 65.3766Z" fill="#1F161E"/>
<path d="M122.723 65.9981C126.327 65.9981 129.248 63.0767 129.248 59.4731C129.248 55.8694 126.327 52.948 122.723 52.948C119.119 52.948 116.198 55.8694 116.198 59.4731C116.198 63.0767 119.119 65.9981 122.723 65.9981Z" fill="#F8CDBA"/>
<path d="M129.61 62.0742C129.668 61.7505 129.211 61.3976 128.589 61.2861C127.968 61.1746 127.417 61.3467 127.359 61.6704C127.3 61.9941 127.757 62.347 128.379 62.4585C129 62.57 129.551 62.3979 129.61 62.0742Z" fill="#FA9E9F"/>
<path d="M122.535 60.8055C122.593 60.4818 122.137 60.1289 121.515 60.0174C120.893 59.9059 120.342 60.078 120.284 60.4017C120.226 60.7255 120.683 61.0783 121.305 61.1898C121.926 61.3013 122.477 61.1293 122.535 60.8055Z" fill="#FA9E9F"/>
<path d="M125.956 60.166C126.112 60.5017 126.968 61.957 125.74 62.2624" stroke="#1F161E" stroke-width="1.2" stroke-miterlimit="10" stroke-linecap="round"/>
<path d="M123.204 63.3279C122.868 63.2565 122.42 62.754 122.212 62.3252" stroke="#1F161E" stroke-width="1.2" stroke-miterlimit="10" stroke-linecap="round"/>
<path d="M110.606 80.9475C111.204 80.2805 113.435 77.5366 114.379 76.7635" stroke="#1F161E" stroke-miterlimit="10" stroke-linecap="round"/>
<path d="M123.613 50.7325C121.881 50.7325 116.739 49.8836 115.485 49C114.987 49.3487 113.151 51.4688 111.78 54.1975L114.478 56.3047L111.273 55.289C110.641 56.6969 110.274 58.2093 110.19 59.7502C111.239 61.7621 113.803 62.3208 114.27 62.3208C117.302 62.3208 117.865 57.5413 119.295 56.779C121.727 55.4796 125.051 57.6452 128.811 57.0085C129.417 55.1937 127.765 50.7325 123.613 50.7325Z" fill="#1F161E"/>
<path d="M116.653 60.6533C117.485 60.6533 118.16 59.9785 118.16 59.146C118.16 58.3136 117.485 57.6388 116.653 57.6388C115.82 57.6388 115.146 58.3136 115.146 59.146C115.146 59.9785 115.82 60.6533 116.653 60.6533Z" fill="#F8CDBA"/>
<path d="M111.531 94.9721C110.976 94.4632 105.9 95.2385 104.817 97.9217C106.227 94.8335 107.548 92.2911 107.94 91.6695C108.358 92.068 111.531 94.9721 111.531 94.9721Z" fill="#1F161E"/>
<path d="M127.165 90.9441C127.046 91.8103 127.828 95.1367 129.447 94.7079L126.483 95.5201L127.165 90.9441Z" fill="#1F161E"/>
</g>
</svg>
