<svg width="150" height="169" viewBox="0 0 150 169" fill="none" xmlns="http://www.w3.org/2000/svg">
<mask id="mask0" mask-type="alpha" maskUnits="userSpaceOnUse" x="0" y="0" width="150" height="169">
<rect width="150" height="168.25" fill="#C4C4C4"/>
</mask>
<g mask="url(#mask0)">
<path d="M94.5374 7.39052C137.874 28.2115 146.634 68.0027 139.718 97.6148C132.803 127.227 120.355 138.794 103.297 140.645C51.9818 146.212 24 85.0494 24 46.719C24 8.38864 54.4279 -11.88 94.5374 7.39052Z" fill="#FFFAC9"/>
<path d="M76.6446 42.6487C76.7075 42.6016 76.7761 42.5539 76.8506 42.5057C77.5156 42.0753 78.4939 41.7176 79.6548 41.4395C81.9621 40.8868 84.685 40.7179 86.2295 40.7179C89.7058 40.7179 91.605 39.7014 93.2613 38.7353C93.3303 38.6951 93.3987 38.6551 93.4665 38.6154C94.9516 37.7464 96.1843 37.0251 98.4646 37.0251C100.535 37.0251 102.106 37.8504 103.85 38.8081C103.901 38.8361 103.952 38.8642 104.003 38.8925C105.668 39.8077 107.541 40.838 109.954 40.838C115.091 40.838 118.232 37.8459 121.046 35.1654L121.07 35.1431C123.951 32.3981 126.49 30 130.614 30C134.733 30 136.674 32.4206 138.81 35.2583C138.868 35.3353 138.926 35.4127 138.984 35.4904C141.027 38.2102 143.359 41.3141 148.119 41.3141C150.296 41.3141 157.992 41.521 165.139 42.0405C167.477 42.2105 169.744 42.413 171.732 42.6507L76.6446 42.6487Z" fill="white" stroke="#FAFAFA" stroke-width="2"/>
<path d="M75.3573 25.3156C75.2016 25.1579 75.0177 24.9911 74.8049 24.8168C73.9204 24.0927 72.652 23.3339 71.1869 22.6415C68.2355 21.2466 64.7247 20.2311 62.3417 20.2311C59.838 20.2311 58.2147 20.4486 57.0888 20.7504C55.9864 21.046 55.3295 21.4301 54.7565 21.8253C54.6401 21.9056 54.5189 21.9932 54.3919 22.0849C53.9144 22.4298 53.3546 22.8341 52.6568 23.137C51.7316 23.5387 50.5809 23.7732 48.88 23.7732C46.6421 23.7732 44.916 22.554 43.4722 20.986C42.34 19.7564 41.2807 18.1961 40.2283 16.6459C39.9572 16.2465 39.6865 15.8478 39.4151 15.4556C36.6775 11.4987 33.7383 8 28.7282 8C25.9211 8 23.9905 8.87806 22.5237 10.1629C21.0229 11.4775 19.9563 13.2612 18.9761 15.1708C18.7543 15.603 18.5344 16.0475 18.3133 16.4947C17.5926 17.9521 16.8581 19.4373 15.9966 20.6098C14.8238 22.206 13.276 23.4283 10.9756 23.4283C9.36523 23.4283 8.10649 23.0814 6.87995 22.7434C6.75829 22.7099 6.63693 22.6764 6.51559 22.6434C5.17635 22.2791 3.72536 21.9287 1.56297 21.9287C0.548836 21.9287 -0.606758 22.4445 -1.52644 23.3166C-2.1527 23.9105 -2.60994 24.6123 -2.83754 25.3272L75.3573 25.3156Z" fill="white" stroke="#FAFAFA" stroke-width="2"/>
<path d="M43.6746 165C43.8914 163.693 44.0003 162.37 44 161.045C44 150.526 37.2841 142 28.9981 142C20.7121 142 14 150.526 14 161.045C13.9997 162.37 14.1086 163.693 14.3254 165H43.6746Z" fill="#99574A"/>
<path d="M33.6382 20C45.276 20 49.2038 27.89 49.2038 33.3731C49.2038 44.8079 46.7282 42.2579 46.7282 54.0759C46.7282 66.7771 63 82.8145 63 104.752C63 134.743 36.8228 139.14 33.6382 139.14C17.1319 139.14 11 120.975 11 109.955C11 96.8994 22.4977 82.9231 22.4977 70.3391C22.4977 61.134 19.4904 57.5578 19.4904 43.2871C19.4904 28.9363 27.8035 20 33.6382 20Z" fill="#73E5BC"/>
<path d="M32.7688 163.985V38.8845" stroke="#FBDC8E" stroke-width="3" stroke-miterlimit="10" stroke-linecap="round"/>
<path d="M32.7688 120.078L52.1509 100.212" stroke="#FBDC8E" stroke-width="3" stroke-miterlimit="10" stroke-linecap="round"/>
<path d="M32.2862 64.3298L26.0427 58.0864" stroke="#FBDC8E" stroke-width="3" stroke-miterlimit="10" stroke-linecap="round"/>
<path d="M32.7688 47.5834L41.485 38.8701" stroke="#FBDC8E" stroke-width="3" stroke-miterlimit="10" stroke-linecap="round"/>
<path d="M78.5511 58.1073C89.2613 63.0189 90.4275 81.0937 88.4679 85.1315C85.3348 91.5781 73.9749 100.881 70.9073 107.317C69.591 110.078 58.4592 138.888 48.1622 135.492C39.0123 132.456 34.0422 119.184 39.2437 109.975C46.9144 96.3559 50.043 78.1742 52.7607 73.3213C56.3477 66.9341 68.1384 53.3309 78.5511 58.1073Z" fill="#50B89D"/>
<path d="M44.2461 163.034C44.2661 156.429 48.4222 103.59 67.4958 82.0563" stroke="#FBDC8E" stroke-width="3" stroke-miterlimit="10" stroke-linecap="round"/>
<path d="M60.6972 92.0487L56.6284 76.2904" stroke="#FBDC8E" stroke-width="3" stroke-miterlimit="10" stroke-linecap="round"/>
<path d="M39 164.988C39 161.099 45.9309 147.558 57.7541 147.558C69.3041 147.558 71.9583 151.866 81.5432 151.866C88.7024 151.866 88.2131 148.994 94.932 148.994C108.659 148.994 114 160.074 114 165L39 164.988Z" fill="#B37361"/>
<path d="M103.364 103.058C102.797 104.756 97.3007 127.097 96.2374 128.179C95.174 129.262 65.4009 144.677 65.4009 144.677L67.4149 149.788C67.4149 149.788 98.6152 139.826 100.231 138.943C101.846 138.059 114.145 127.27 116.023 122.735C117.9 118.2 105.53 102.989 103.364 103.058Z" fill="#1F161E"/>
<path d="M133.25 163.925C133.25 164.441 132.949 167.676 133.549 167.977C134.149 168.278 140.741 168.456 141.042 168.157C141.343 167.858 141.52 167.228 141.258 167.048C140.996 166.869 138.443 166.357 138.097 166.119C137.75 165.881 137.271 164.603 137.447 163.925" fill="#1F161E"/>
<path d="M65.6281 145.169C65.1539 145.366 62.0484 146.33 62.0007 146.999C61.9531 147.668 64.3158 153.825 64.7078 153.987C65.0997 154.15 65.7494 154.074 65.8122 153.756C65.875 153.437 65.3704 150.89 65.4657 150.486C65.561 150.081 66.5485 149.145 67.2415 149.048" fill="#1F161E"/>
<path d="M132.106 90.309C131.457 90.4952 126.331 91.773 125.8 91.773C125.27 91.773 124.522 96.9293 125.055 96.8795C125.588 96.8297 132.319 94.8048 133.995 94.6468C135.671 94.4887 132.106 90.309 132.106 90.309Z" fill="#F8CDBA"/>
<path d="M113.326 67.9748C117.155 67.6131 124.228 69.4539 126.452 70.7295C130.84 73.2351 125.781 105.629 123.505 108.039C121.469 108.843 104.231 104.791 103.364 103.058C103.823 99.5822 110.66 87.5803 111.31 86.9306C110.877 86.4975 108.928 84.1153 108.928 84.1153C108.928 84.1153 110.682 81.7612 110.877 81.6291C110.318 81.2566 104.735 76.8452 104.425 76.5984C105.543 74.9438 112.04 68.0896 113.326 67.9748Z" fill="#F9ED69"/>
<path d="M118.827 96.0999C118.526 95.3636 109.272 84.5397 108.936 84.1066C109.443 83.4028 110.279 82.3264 110.964 81.5078C108.324 79.5804 105.489 77.3931 104.467 76.5096C104.45 76.5318 104.434 76.5549 104.419 76.5789C103.958 77.1289 99.8408 83.2923 99.8408 84.1586C99.8408 85.0248 112.436 97.2867 114.006 97.8887C115.576 98.4908 119.126 96.834 118.827 96.0999Z" fill="#F8CDBA"/>
<path d="M120.373 99.6671C121.387 98.1155 120.832 95.9566 119.132 94.8452C117.432 93.7337 115.232 94.0906 114.217 95.6422C113.203 97.1938 113.758 99.3526 115.458 100.464C117.158 101.575 119.358 101.219 120.373 99.6671Z" fill="#F8CDBA"/>
<path d="M133.592 95.2488C135.243 95.2488 136.581 93.9108 136.581 92.2602C136.581 90.6097 135.243 89.2717 133.592 89.2717C131.942 89.2717 130.604 90.6097 130.604 92.2602C130.604 93.9108 131.942 95.2488 133.592 95.2488Z" fill="#F8CDBA"/>
<path d="M123.505 108.039C123.505 108.039 132.265 125.226 133.605 128.799C134.946 132.372 138.216 164.149 138.216 164.149C138.216 164.149 133.85 164.664 132.678 164.149C131.507 163.633 126.638 140.517 123.955 135.79C119.873 128.582 97.686 115.151 103.364 103.058" fill="#FFD365"/>
<path d="M116.949 69.7376C116.847 70.3007 121.428 71.1215 121.53 70.5584L122.552 64.8563L117.971 64.0355L116.949 69.7376Z" fill="#F8CDBA"/>
<path d="M120.965 66.3766C120.519 66.2964 117.432 67.0479 117.307 67.7518L117.972 64.0355C118.684 64.1633 120.965 66.3766 120.965 66.3766Z" fill="#1F161E"/>
<path d="M122.723 66.9981C126.327 66.9981 129.248 64.0767 129.248 60.4731C129.248 56.8694 126.327 53.948 122.723 53.948C119.119 53.948 116.198 56.8694 116.198 60.4731C116.198 64.0767 119.119 66.9981 122.723 66.9981Z" fill="#F8CDBA"/>
<path d="M129.61 63.0742C129.668 62.7505 129.211 62.3976 128.589 62.2861C127.968 62.1746 127.417 62.3467 127.359 62.6704C127.3 62.9941 127.757 63.347 128.379 63.4585C129 63.57 129.551 63.3979 129.61 63.0742Z" fill="#FA9E9F"/>
<path d="M122.535 61.8055C122.593 61.4818 122.137 61.1289 121.515 61.0174C120.893 60.9059 120.342 61.078 120.284 61.4017C120.226 61.7255 120.683 62.0783 121.305 62.1898C121.926 62.3013 122.477 62.1293 122.535 61.8055Z" fill="#FA9E9F"/>
<path d="M125.956 61.166C126.112 61.5017 126.968 62.957 125.74 63.2624" stroke="#1F161E" stroke-width="1.2" stroke-miterlimit="10" stroke-linecap="round"/>
<path d="M123.204 64.3279C122.868 64.2565 122.42 63.754 122.212 63.3252" stroke="#1F161E" stroke-width="1.2" stroke-miterlimit="10" stroke-linecap="round"/>
<path d="M110.606 81.9475C111.204 81.2805 113.435 78.5366 114.379 77.7635" stroke="#1F161E" stroke-miterlimit="10" stroke-linecap="round"/>
<path d="M123.613 51.7325C121.881 51.7325 116.739 50.8836 115.485 50C114.987 50.3487 113.151 52.4688 111.78 55.1975L114.478 57.3047L111.273 56.289C110.641 57.6969 110.274 59.2093 110.19 60.7502C111.239 62.7621 113.803 63.3208 114.27 63.3208C117.302 63.3208 117.865 58.5413 119.295 57.779C121.727 56.4796 125.051 58.6452 128.811 58.0085C129.417 56.1937 127.765 51.7325 123.613 51.7325Z" fill="#1F161E"/>
<path d="M116.653 61.6533C117.485 61.6533 118.16 60.9785 118.16 60.146C118.16 59.3136 117.485 58.6388 116.653 58.6388C115.82 58.6388 115.146 59.3136 115.146 60.146C115.146 60.9785 115.82 61.6533 116.653 61.6533Z" fill="#F8CDBA"/>
<path d="M111.531 95.9721C110.976 95.4632 105.9 96.2385 104.817 98.9217C106.227 95.8335 107.548 93.2911 107.94 92.6695C108.358 93.068 111.531 95.9721 111.531 95.9721Z" fill="#1F161E"/>
<path d="M127.165 91.9441C127.046 92.8103 127.828 96.1367 129.447 95.7079L126.483 96.5201L127.165 91.9441Z" fill="#1F161E"/>
</g>
</svg>
