<svg width="150" height="169" viewBox="0 0 150 169" fill="none" xmlns="http://www.w3.org/2000/svg">
<path d="M75 7C116.421 7 150 40.5786 150 82C150 123.421 116.421 157 75 157C33.5786 157 0 123.421 0 82C0 40.5786 33.5786 7 75 7Z" fill="#FFE7EA"/>
<path opacity="0.57" d="M105.25 58.1388L130.209 51.3835L138.052 80.3709L109.87 88L102.896 62.2365L105.25 58.1388Z" fill="#FADB93"/>
<path d="M109.685 58.9273L110.56 58.6907C111.082 58.5495 111.619 58.8581 111.761 59.3799L113.177 64.6162C113.319 65.1381 113.01 65.6756 112.488 65.8168L111.613 66.0535C111.092 66.1947 110.554 65.8861 110.413 65.3642L108.996 60.1279C108.855 59.6061 109.163 59.0685 109.685 58.9273Z" fill="#78E5E1"/>
<path d="M110.334 71.085L128.913 66.105L133.13 81.8394L114.551 86.8193L110.334 71.085Z" fill="#78E5E1"/>
<path d="M102.354 56.7554L127.313 50L135.156 78.9915L106.97 86.6165L100 60.8531L102.354 56.7554Z" stroke="black" stroke-width="0.41" stroke-miterlimit="10"/>
<path d="M122.462 51.3117L103.973 56.3142L106.164 64.4127C106.256 64.7492 106.477 65.0358 106.779 65.2094C107.081 65.383 107.44 65.4294 107.777 65.3383L123.728 61.0225C124.064 60.9314 124.351 60.7104 124.524 60.408C124.698 60.1056 124.744 59.7467 124.653 59.4101L122.462 51.3117Z" stroke="black" stroke-width="0.41" stroke-miterlimit="10"/>
<path d="M107.558 56.54L108.433 56.3034C108.955 56.1622 109.492 56.4708 109.634 56.9926L111.05 62.2289C111.192 62.7508 110.883 63.2883 110.361 63.4295L109.486 63.6662C108.965 63.8074 108.427 63.4988 108.286 62.9769L106.869 57.7406C106.728 57.2188 107.036 56.6812 107.558 56.54Z" stroke="black" stroke-width="0.41" stroke-miterlimit="10"/>
<path d="M107.582 69.6449L126.071 64.6424L130.308 80.3004L111.819 85.3029L107.582 69.6449Z" stroke="black" stroke-width="0.41" stroke-miterlimit="10"/>
<path d="M100.419 11.6444C100.419 11.6444 97.5319 13.2244 96.145 17.4341L88.6503 40.1056C88.4103 40.8258 84.3035 40.0941 79.4714 38.4973C74.6393 36.9005 70.9056 35.0254 71.1419 34.3042L78.6337 11.6437C80.0184 7.45691 78.6519 4.44705 78.6519 4.44705" fill="#78E5E1"/>
<path d="M85.6904 11.8478L79.3374 31.0637" stroke="black" stroke-width="0.41" stroke-miterlimit="10" stroke-linecap="round"/>
<path d="M88.8509 12.8908L86.7497 12.1984" stroke="black" stroke-width="0.41" stroke-miterlimit="10" stroke-linecap="round"/>
<path d="M87.9427 15.6363L85.8415 14.9438" stroke="black" stroke-width="0.41" stroke-miterlimit="10" stroke-linecap="round"/>
<path d="M87.0382 18.3828L84.937 17.6904" stroke="black" stroke-width="0.41" stroke-miterlimit="10" stroke-linecap="round"/>
<path d="M86.1297 21.1283L84.0285 20.4358" stroke="black" stroke-width="0.41" stroke-miterlimit="10" stroke-linecap="round"/>
<path d="M85.2215 23.8738L83.1203 23.1814" stroke="black" stroke-width="0.41" stroke-miterlimit="10" stroke-linecap="round"/>
<path d="M84.3133 26.6193L82.2131 25.9232" stroke="black" stroke-width="0.41" stroke-miterlimit="10" stroke-linecap="round"/>
<path d="M83.4051 29.3648L81.3049 28.6687" stroke="black" stroke-width="0.41" stroke-miterlimit="10" stroke-linecap="round"/>
<path d="M82.4969 32.1103L80.4004 31.4152" stroke="black" stroke-width="0.41" stroke-miterlimit="10" stroke-linecap="round"/>
<path d="M88.9364 9.82078C82.8966 7.8245 78.2932 5.32038 78.6544 4.22766C79.0156 3.13495 84.2045 3.86743 90.2443 5.86371C96.284 7.86 100.887 10.3641 100.526 11.4568C100.165 12.5496 94.9761 11.8171 88.9364 9.82078Z" fill="#78E5E1"/>
<path d="M92.0955 8.32298C86.0558 6.3267 81.4524 3.82258 81.8136 2.72986C82.1748 1.63715 87.3637 2.36963 93.4035 4.36591C99.4432 6.36219 104.047 8.86632 103.685 9.95903C103.324 11.0517 98.1353 10.3193 92.0955 8.32298Z" stroke="black" stroke-width="0.41" stroke-miterlimit="10"/>
<path d="M103.569 10.135C103.569 10.135 100.682 11.715 99.2954 15.9248L91.8007 38.5963C91.5607 39.3164 87.4575 38.5857 82.6218 36.9879C77.786 35.3902 74.056 33.516 74.296 32.7958L81.7841 10.1343C83.1688 5.94754 81.8022 2.93768 81.8022 2.93768" stroke="black" stroke-width="0.41" stroke-miterlimit="10"/>
<path d="M81.7894 101.464C80.8681 101.416 79.9521 101.632 79.1497 102.087C78.3473 102.543 77.6922 103.218 77.2618 104.035C76.8314 104.851 76.6438 105.773 76.7211 106.692C76.7984 107.612 77.1374 108.49 77.698 109.222" fill="#E2E2E2"/>
<path d="M88.4235 97.5911L78.2778 116.883L75.2524 115.292L85.3981 96L88.4235 97.5911Z" fill="#78E5E1"/>
<path opacity="0.57" d="M85.4297 103.288C88.4623 104.883 92.5146 104.222 93.4492 102.451L111.508 121.948L85.2075 118.124C86.1356 116.346 84.384 112.634 81.3513 111.039" fill="#FADB93"/>
<path d="M85.1711 99.5701L75.0254 118.862L72 117.271L82.1457 97.979L85.1711 99.5701Z" stroke="black" stroke-width="0.41" stroke-miterlimit="10"/>
<path d="M79.1094 103.752C78.1893 103.704 77.2747 103.921 76.4739 104.376C75.673 104.832 75.0194 105.508 74.5904 106.323C74.1614 107.138 73.9749 108.06 74.053 108.978C74.1311 109.896 74.4705 110.772 75.031 111.503" stroke="black" stroke-width="0.41" stroke-miterlimit="10" stroke-linecap="round"/>
<path d="M82.1358 105.34C85.1684 106.935 89.2206 106.275 90.1553 104.504L108.214 124L81.907 120.177C82.8416 118.405 81.09 114.686 78.0574 113.092" stroke="black" stroke-width="0.41" stroke-linecap="round" stroke-linejoin="round"/>
<path d="M108.214 124L90.7891 114.843" stroke="black" stroke-width="0.41" stroke-linecap="round" stroke-linejoin="round"/>
<path d="M86.188 111.745C86.5959 111.745 86.9266 112.076 86.9266 112.484C86.9266 112.892 86.5959 113.222 86.188 113.222C85.7801 113.222 85.4495 112.892 85.4495 112.484C85.4495 112.076 85.7801 111.745 86.188 111.745Z" stroke="black" stroke-width="0.41" stroke-linecap="round" stroke-linejoin="round"/>
<path d="M82.1358 105.34C85.1684 106.935 89.2206 106.275 90.1553 104.504L108.214 124L81.907 120.177C82.8416 118.405 81.09 114.686 78.0574 113.092" stroke="black" stroke-width="0.41" stroke-linecap="round" stroke-linejoin="round"/>
<path d="M55.4664 163.315C55.4664 163.892 55.1276 167.538 55.8007 167.873C56.4737 168.208 63.8821 168.414 64.2164 168.079C64.5507 167.744 64.7557 167.033 64.4526 166.828C64.1495 166.622 61.2923 166.054 60.8867 165.782C60.481 165.509 59.9595 164.084 60.1601 163.315" fill="#1F161E"/>
<path d="M24.7408 84.5908C24.665 85.5292 30.1566 117.748 30.121 118.785C30.0853 119.822 21.7097 158.802 21.7097 158.802L26.2786 160.849C26.2786 160.849 41.7149 128.071 41.9734 125.993C42.2319 123.915 27.1701 84.5818 24.7408 84.5908Z" fill="#1F161E"/>
<path d="M24.741 84.5907C25.0887 85.5738 55.0786 163.686 55.0786 163.686H60.9847L39.941 80.1221L24.741 84.5907Z" fill="#73E5E2"/>
<path d="M29.5237 49.2256C39.1385 49.2256 40.2217 66.7071 40.2217 69.1693C40.2217 71.6315 40.5382 79.3444 39.9542 80.1086C39.1073 80.5108 25.6457 85.0241 24.7542 84.5773C23.8627 84.1304 17.0027 49.2256 29.5237 49.2256Z" fill="#AB8FE2"/>
<path d="M24.8434 68.9325C24.8434 69.7234 24.6696 74.9205 25.9712 75.926C27.2727 76.9314 37.7746 78.2318 37.7746 79.6081C37.7746 80.198 37.9662 80.8326 36.6691 81.266C37.5249 80.9756 39.9409 80.1086 39.9409 80.1086C40.1384 79.6462 40.2313 79.1456 40.2128 78.6429C39.981 78.4329 24.8434 68.9325 24.8434 68.9325Z" fill="#1F161E"/>
<path d="M31.971 45.6865L27.8077 44.7928C27.8077 44.7928 27.3441 49.9809 27.2907 50.4278C27.2372 50.8746 30.6561 51.2768 30.7095 50.8746C30.763 50.4725 31.971 45.6865 31.971 45.6865Z" fill="#F8CDBA"/>
<path d="M27.6739 46.2719C27.6739 46.1736 29.0111 47.0494 29.546 47.3131C30.0809 47.5767 27.607 47.8136 27.4465 48.7788C27.5134 48.0638 27.6649 46.4328 27.6739 46.2719Z" fill="#1F161E"/>
<path d="M31.182 47.5633C34.173 47.5633 36.5978 45.1325 36.5978 42.1339C36.5978 39.1353 34.173 36.7045 31.182 36.7045C28.1909 36.7045 25.7661 39.1353 25.7661 42.1339C25.7661 45.1325 28.1909 47.5633 31.182 47.5633Z" fill="#F8CDBA"/>
<path d="M31.0883 64.3923C30.91 65.2861 30.5712 69.8396 30.5846 71.1668C31.1463 72.4091 40.3242 76.3147 42.2409 76.6365C42.9987 76.6141 43.4177 76.1896 43.8902 76.1896C45.0135 76.2119 48.0223 76.0198 48.0223 76.346C48.0223 76.6722 47.1308 78.9646 46.0164 78.9646C44.1398 78.9646 43.4979 78.4731 42.7892 78.4284C41.7907 78.3658 41.4163 78.7278 40.5293 78.6697C39.6422 78.6116 28.445 76.8152 26.5417 73.9687C24.567 71.0104 24.1614 63.4271 24.1703 63.0651C24.6785 63.2037 30.3439 64.3923 31.0883 64.3923Z" fill="#F8CDBA"/>
<path d="M24.1703 63.0741C23.992 59.7718 24.4824 53.2743 28.3737 53.7927" stroke="#1F161E" stroke-width="0.55" stroke-miterlimit="10" stroke-linecap="round"/>
<path d="M22.2448 158.864C22.0754 159.235 20.5287 162.466 21.1438 163.57C21.759 164.674 26.261 166.89 26.8004 166.698C27.3397 166.506 27.4512 165.912 27.0277 165.179C26.6042 164.446 24.946 163.7 24.7365 163.061C24.527 162.421 25.1021 160.692 25.6994 160.317" fill="#1F161E"/>
<path d="M33.317 44.3906C33.9054 44.3906 34.3824 44.1425 34.3824 43.8365C34.3824 43.5304 33.9054 43.2823 33.317 43.2823C32.7287 43.2823 32.2517 43.5304 32.2517 43.8365C32.2517 44.1425 32.7287 44.3906 33.317 44.3906Z" fill="#FA9E9F"/>
<path d="M27.2906 45.834C26.3233 45.3871 25.1108 43.4477 25.1108 40.8157C25.1108 34.001 33.3304 34.1127 34.164 33.8625C34.9975 33.6122 36.6691 33 37.0747 33C38.4387 33 39.0003 36.7358 39.0003 37.3391C39.0003 39.6941 37.0569 40.9632 36.4952 41.0391C36.2371 40.3778 35.9208 39.7407 35.5503 39.1355C35.1803 39.3366 29.6887 41.3698 28.7437 41.5977C29.0201 42.6121 27.1479 44.9492 27.2906 45.834Z" fill="#1F161E"/>
<path d="M36.4464 41.0436C36.8431 41.0436 37.4225 42.6076 37.3378 42.9606C37.2532 43.3137 36.3795 43.5862 36.0318 43.5728C35.6841 43.5594 35.8758 41.0436 36.4464 41.0436Z" fill="#F8CDBA"/>
<path d="M33.0007 45.1815C33.0006 45.3622 33.0646 45.537 33.1815 45.6746C33.2983 45.8122 33.4602 45.9036 33.6381 45.9323" stroke="#1F161E" stroke-width="0.55" stroke-miterlimit="10" stroke-linecap="round"/>
<path d="M28.2401 43.2109C29.0082 43.2109 29.6308 42.5867 29.6308 41.8166C29.6308 41.0466 29.0082 40.4224 28.2401 40.4224C27.472 40.4224 26.8494 41.0466 26.8494 41.8166C26.8494 42.5867 27.472 43.2109 28.2401 43.2109Z" fill="#F8CDBA"/>
<path d="M65.6293 62.4037H38.5278V76.3549H65.6293V62.4037Z" fill="#B37361"/>
</svg>
