<svg width="150" height="169" viewBox="0 0 150 169" fill="none" xmlns="http://www.w3.org/2000/svg">
<mask id="mask0" mask-type="alpha" maskUnits="userSpaceOnUse" x="0" y="0" width="150" height="169">
<rect width="150" height="168.25" fill="#C4C4C4"/>
</mask>
<g mask="url(#mask0)">
<path d="M12.0558 66.4455C12.0558 66.4455 3.59316 20.6922 44.1008 12.0121C70.8938 6.27078 94.1373 25.7764 120.044 49.7643C143.749 71.7133 156.041 100.247 135.848 119.123C115.655 137.999 64.7332 164.338 32.6876 144.145C-4.74963 120.554 -7.69863 100.686 12.0558 66.4455Z" fill="#D6FAFF"/>
<path d="M75.8718 36.8862C75.8718 35.9634 75.1237 35.2153 74.2009 35.2153C73.2781 35.2153 72.53 35.9634 72.53 36.8862V42.6538C72.53 43.5766 73.2781 44.3247 74.2009 44.3247C75.1237 44.3247 75.8718 43.5766 75.8718 42.6538V36.8862Z" fill="black"/>
<path d="M74.2007 54.02C76.0521 54.02 77.553 52.5191 77.553 50.6677C77.553 48.8162 76.0521 47.3153 74.2007 47.3153C72.3493 47.3153 70.8484 48.8162 70.8484 50.6677C70.8484 52.5191 72.3493 54.02 74.2007 54.02Z" fill="#FBDC8E"/>
<path d="M74.2006 40.5606C72.8731 40.5602 71.5585 40.8214 70.3319 41.3292C69.1054 41.837 67.9909 42.5814 67.0521 43.5199C66.1132 44.4585 65.3685 45.5728 64.8604 46.7993C64.3523 48.0257 64.0908 49.3402 64.0908 50.6677H84.3077C84.3077 49.3404 84.0463 48.0261 83.5383 46.7999C83.0304 45.5736 82.2859 44.4594 81.3474 43.5209C80.4089 42.5824 79.2947 41.8379 78.0684 41.3299C76.8422 40.822 75.5279 40.5606 74.2006 40.5606Z" fill="#969696"/>
<path d="M73.9397 37.3626L73.9397 17.1457" stroke="black" stroke-width="2" stroke-linecap="round" stroke-linejoin="round"/>
<path d="M134.284 106.278V106.018L134.902 105.24L136.32 103.489L137.84 101.637C137.84 101.637 139.304 100.617 139.68 100.441C141.051 99.8024 142.402 99.3146 144.015 99.3146C145.007 99.3146 148.716 99.4651 148.724 100.093C148.724 101.024 143.531 104.55 139.722 106.262C138.062 106.278 134.284 106.278 134.284 106.278Z" fill="#1F161E"/>
<path d="M135.07 106.278C140.356 102.192 151.144 79.855 148.379 71.5792C142.487 74.6015 136.023 85.0228 132.975 93.8226C132.813 94.395 132.684 94.9762 132.588 95.5633L131.351 101.271L131.042 106.278H135.07Z" fill="#FBDC8E"/>
<path d="M131.462 106.278C133.245 104.82 133.815 100.503 133.83 98.8918C133.859 95.885 133.4 93.6695 130.846 90.3618C128.292 87.0541 128.98 81.5646 125.578 77.8651C122.176 74.1657 119.939 73.1357 115.914 73.1357C111.888 73.1357 110.612 79.7045 110.623 81.357C110.669 88.0191 114.842 88.9609 117.383 92.1441C119.231 94.453 119.375 96.3416 119.934 97.4208C122.939 103.229 125.372 105.424 127.176 106.278" fill="#3EC1D3"/>
<path d="M130.488 105.795C130.436 94.4244 118.532 77.3463 115.988 74.7857" stroke="white" stroke-width="0.4" stroke-linecap="round" stroke-linejoin="round"/>
<path d="M129.835 100.635C131.152 99.1902 132.351 95.0938 132.17 94.0301" stroke="white" stroke-width="0.4" stroke-linecap="round" stroke-linejoin="round"/>
<path d="M133.21 105.305C135.075 101.969 143.928 85.7388 147.24 73.7817" stroke="white" stroke-width="0.4" stroke-linecap="round" stroke-linejoin="round"/>
<path d="M127.176 106.278H121.635L126.274 123.672H138.678L143.242 106.278H127.176Z" fill="#B37361"/>
<path d="M146.923 100.448C144.219 100.635 140.817 100.76 138.405 102.407" stroke="white" stroke-width="0.4" stroke-linecap="round" stroke-linejoin="round"/>
<path d="M32.8746 125.212C42.6755 125.212 50.6208 123.456 50.6208 121.29C50.6208 119.123 42.6755 117.367 32.8746 117.367C23.0736 117.367 15.1284 119.123 15.1284 121.29C15.1284 123.456 23.0736 125.212 32.8746 125.212Z" fill="#969696"/>
<path d="M32.8747 121.29L22.9036 152.486" stroke="#969696" stroke-width="4" stroke-miterlimit="10" stroke-linecap="round"/>
<path d="M32.8743 121.29L42.8426 152.486" stroke="#969696" stroke-width="4" stroke-miterlimit="10" stroke-linecap="round"/>
<path d="M26.1763 142.244L37.2919 135.119" stroke="#969696" stroke-width="2" stroke-miterlimit="10" stroke-linecap="round"/>
<path d="M28.4121 135.119L39.5249 142.244" stroke="#969696" stroke-width="2" stroke-miterlimit="10" stroke-linecap="round"/>
<path d="M103.614 108.829H123.515C125.235 108.829 126.629 110.193 126.629 111.876V120.466C126.629 122.149 125.235 123.513 123.515 123.513H103.614C101.894 123.513 100.5 122.149 100.5 120.466V111.876C100.5 110.193 101.894 108.829 103.614 108.829Z" fill="#F0F0F0"/>
<path d="M113.599 111.308H123.537V121.033H113.599V111.308Z" fill="#DBDBDB"/>
<path d="M109.14 114.289C108.328 114.289 107.67 113.645 107.67 112.85C107.67 112.056 108.328 111.411 109.14 111.411C109.952 111.411 110.611 112.056 110.611 112.85C110.611 113.645 109.952 114.289 109.14 114.289Z" fill="#F8DA96"/>
<path d="M103.911 113.779C103.387 113.779 102.962 113.363 102.962 112.85C102.962 112.337 103.387 111.922 103.911 111.922C104.435 111.922 104.86 112.337 104.86 112.85C104.86 113.363 104.435 113.779 103.911 113.779Z" fill="#7CE4DF"/>
<path d="M109.14 113.275C108.901 113.275 108.707 113.085 108.707 112.85C108.707 112.616 108.901 112.426 109.14 112.426C109.38 112.426 109.574 112.616 109.574 112.85C109.574 113.085 109.38 113.275 109.14 113.275Z" fill="#AB94DC"/>
<path d="M99.6328 111.891H100.5V115.101H99.6328V111.891Z" fill="#DBDBDB"/>
<path d="M123.744 108.855L98.256 102.509" stroke="black" stroke-miterlimit="10" stroke-linecap="round"/>
<path d="M97.5325 103.04C97.1161 103.04 96.7785 102.709 96.7785 102.302C96.7785 101.894 97.1161 101.564 97.5325 101.564C97.949 101.564 98.2866 101.894 98.2866 102.302C98.2866 102.709 97.949 103.04 97.5325 103.04Z" fill="#F8DA96"/>
<path d="M107.009 115.219H111.271V116.171H107.009V115.219Z" fill="#DBDBDB"/>
<path d="M101.78 115.219H106.042V116.171H101.78V115.219Z" fill="#DBDBDB"/>
<path d="M107.009 117.1H111.271V118.052H107.009V117.1Z" fill="#DBDBDB"/>
<path d="M101.78 117.1H106.042V118.052H101.78V117.1Z" fill="#DBDBDB"/>
<path d="M73.9553 122.208C73.7763 123.28 68.6803 147.446 69.0165 147.99C69.3527 148.535 74.0319 151.098 74.6777 150.606C75.1121 149.622 80.7986 133.506 81.5602 132.152" fill="#1F161E"/>
<path d="M19.6997 98.098C18.036 96.4179 15.4707 117.426 26.4707 121.218C37.4707 125.009 61.7621 114.635 64.7599 115.668C71.3777 117.95 82.5646 136.344 83.7929 136.767C85.0575 136.151 87.5058 135.153 87.7287 134.507C87.9515 133.86 81.4627 104.001 70.2398 100.132C65.8894 98.6281 23.4551 101.894 19.6997 98.098Z" fill="#3C909B"/>
<path d="M25.7749 100.564C28.146 100.823 31.3273 100.476 34.205 99.9889C26.8736 99.8701 20.9926 99.4055 19.6994 98.098C18.8175 97.2089 17.6851 102.678 18.4433 108.584C18.3281 107.451 20.1917 99.9526 25.7749 100.564Z" fill="#1F161E"/>
<path d="M42.4557 67.9077C44.1726 68.5517 53.2859 71.3958 54.9469 74.6035C56.1797 76.9809 56.7036 93.9743 55.7647 99.5536C51.2631 100.179 19.0717 103.887 12.526 95.1197C13.8962 90.5327 20.966 72.8708 29.8062 65.3753C32.3208 64.7182 40.805 67.2888 42.4557 67.9077Z" fill="#3EC1D3"/>
<path d="M47.453 64.8181L42.1831 63.0016L40.2304 68.6668C39.7413 70.0857 45.0155 71.89 45.5003 70.4833L47.453 64.8181Z" fill="#F8CDBA"/>
<path d="M41.0056 66.417C41.2222 65.7886 43.5075 64.8098 44.5649 65.2355C44.8274 64.5595 42.6918 62.6895 42.6918 62.6895L41.9998 63.5327L41.0056 66.417Z" fill="#1F161E"/>
<path d="M52.9722 66.7205C53.2794 66.2139 53.5317 65.676 53.7249 65.1159C55.1655 60.9364 53.0683 56.4219 49.0368 55.0323C45.0053 53.6427 40.5718 55.9062 39.1312 60.0856C38.9383 60.6458 38.8056 61.2249 38.7353 61.8132L52.9722 66.7205Z" fill="#1F161E"/>
<path d="M52.8056 60.9598C51.9586 60.5159 51.3092 59.5052 50.8455 58.8306C46.4028 60.2064 44.1181 59.4597 43.8728 59.3752C43.6275 59.2906 42.1336 60.3813 41.6176 60.3848L41.5855 60.3465C41.4633 61.1484 41.5091 61.9669 41.72 62.7501C41.9308 63.5334 42.3022 64.2642 42.8105 64.8963C43.3189 65.5284 43.953 66.048 44.6728 66.422C45.3925 66.796 46.1822 67.0163 46.9916 67.069C47.801 67.1217 48.6125 67.0055 49.3747 66.7279C50.1368 66.4503 50.8329 66.0173 51.4189 65.4564C52.0048 64.8955 52.4678 64.219 52.7784 63.4697C53.089 62.7204 53.2405 61.9147 53.2232 61.1037C53.0786 61.0732 52.9384 61.0248 52.8056 60.9598Z" fill="#F8CDBA"/>
<path d="M44.7595 54.6124C45.9483 55.0222 47.2442 54.3906 47.654 53.2018C48.0638 52.013 47.4322 50.717 46.2434 50.3073C45.0546 49.8975 43.7586 50.529 43.3489 51.7179C42.9391 52.9067 43.5706 54.2026 44.7595 54.6124Z" fill="#1F161E"/>
<path d="M44.1977 59.3534C43.9612 59.2843 43.7073 59.3088 43.4885 59.4219C43.2697 59.535 43.1028 59.728 43.0225 59.9609C42.9423 60.1938 42.9547 60.4486 43.0574 60.6726C43.16 60.8965 43.3449 61.0723 43.5738 61.1635" stroke="#1F161E" stroke-miterlimit="10" stroke-linecap="round"/>
<path d="M51.0598 61.8411C51.2031 62.2873 51.6724 63.143 50.4967 63.4748" stroke="#1F161E" stroke-miterlimit="10" stroke-linecap="round"/>
<path d="M47.4529 62.9699C47.3614 63.2354 47.2562 63.9089 47.7692 64.2694" stroke="#1F161E" stroke-miterlimit="10" stroke-linecap="round"/>
<path d="M45.6679 62.4181C46.1291 62.577 46.5699 62.5117 46.6525 62.2721C46.7351 62.0326 46.4281 61.7095 45.9669 61.5505C45.5057 61.3916 45.0649 61.4569 44.9823 61.6965C44.8998 61.936 45.2067 62.2591 45.6679 62.4181Z" fill="#FA9E9F"/>
<path d="M51.8764 64.5581C52.3376 64.717 52.7784 64.6517 52.861 64.4122C52.9436 64.1726 52.6366 63.8495 52.1754 63.6906C51.7142 63.5316 51.2734 63.5969 51.1908 63.8365C51.1082 64.076 51.4152 64.3991 51.8764 64.5581Z" fill="#FA9E9F"/>
<path d="M50.0942 88.0633L56.2265 88.5556C56.4526 89.6563 55.9688 99.6126 55.9688 99.6126L46.0102 100.28C46.7148 98.6044 49.7583 90.8865 50.0942 88.0633Z" fill="#F8CDBA"/>
<path d="M30.8328 79.8389C30.598 80.5199 29.1308 82.9146 28.3724 84.0161" stroke="#1F161E" stroke-miterlimit="10" stroke-linecap="round"/>
<path d="M50.0944 88.0633C50.3282 86.9443 51.6164 80.6282 51.3606 76.982" stroke="#1F161E" stroke-miterlimit="10" stroke-linecap="round"/>
<path d="M50.0942 88.0633L56.2265 88.5556C56.4526 89.6563 55.9688 99.6126 55.9688 99.6126L46.0102 100.28C46.7148 98.6044 49.7583 90.8865 50.0942 88.0633Z" fill="#F8CDBA"/>
<path d="M84.1258 136.347C84.1851 136.583 85.1507 139.229 85.7362 139.458C86.3217 139.687 90.7701 138.485 90.793 137.906C90.8158 137.326 88.4365 136.887 88.1102 136.571C87.7839 136.254 87.2174 135.088 87.213 134.653" fill="#1F161E"/>
<path d="M69.9925 148.567C69.8724 148.777 68.7288 151.352 68.9922 151.923C69.2555 152.495 73.2894 154.72 73.7071 154.317C74.1247 153.914 72.7101 151.946 72.7046 151.495C72.699 151.044 73.0892 149.813 73.3948 149.493" fill="#1F161E"/>
<path d="M76.6627 107.38L57.5754 100.801L66.2704 90.3258L85.3577 96.905L76.6627 107.38Z" fill="#969696"/>
<path d="M60.914 101.444L41.8267 94.8649L41.6702 95.3189L60.7575 101.898L60.914 101.444Z" fill="#969696"/>
<path d="M28.3722 84.0161C27.531 85.2659 23.7179 90.5188 24.1078 91.7826C24.4977 93.0463 43.4495 97.0117 48.8333 97.1757C50.2114 97.1972 51.4964 96.4496 52.0925 96.5031C52.837 96.6269 53.5098 97.0209 53.9821 97.6096C54.4544 98.1983 54.6932 98.9404 54.6527 99.6941C52.3867 99.9653 19.4168 104.616 12.5281 95.1136C11.2326 93.2996 19.4166 79.3395 19.8137 78.6282C21.2824 79.3476 28.3722 84.0161 28.3722 84.0161Z" fill="#F8CDBA"/>
<path d="M47.2827 97.063C47.8746 97.1219 48.3963 97.1611 48.8314 97.175C50.2096 97.1965 51.4946 96.4489 52.0907 96.5024C52.8357 96.6258 53.509 97.0197 53.9818 97.6086C54.4546 98.1975 54.6935 98.94 54.6529 99.6941" stroke="#1F161E" stroke-miterlimit="10" stroke-linecap="round"/>
<path d="M141.554 123.513H99.4124V150.73H141.554V123.513Z" fill="#969696"/>
<g clip-path="url(#clip0)">
<path d="M89.1808 81.059L75.3591 75.4223C74.9105 75.2393 74.3954 75.4624 74.2086 75.9206L72.3282 80.5313C72.1414 80.9894 72.3536 81.5092 72.8022 81.6921L86.6238 87.3288C87.0724 87.5118 87.5875 87.2886 87.7744 86.8305L89.6547 82.2198C89.8415 81.7616 89.6293 81.2419 89.1808 81.059Z" fill="#3EC1D3"/>
<path d="M77.96 88.809L82.1685 83.8098L78.4478 82.2924L77.96 88.809Z" fill="#3EC1D3"/>
<path d="M77.9002 78.4065L75.2157 80.5273L78.336 81.7998L77.9002 78.4065Z" fill="white"/>
<path d="M84.1504 84.171L86.8349 82.0502L83.7173 80.7788L84.1504 84.171Z" fill="white"/>
<path d="M80.5393 82.4844C81.1863 82.7482 81.9292 82.4265 82.1987 81.7657C82.4682 81.1049 82.1622 80.3553 81.5152 80.0915C80.8682 79.8276 80.1253 80.1494 79.8558 80.8102C79.5863 81.471 79.8923 82.2206 80.5393 82.4844Z" fill="white"/>
</g>
</g>
<defs>
<clipPath id="clip0">
<rect width="16.6812" height="11.4135" fill="white" transform="translate(74.5469 75.091) rotate(22.1865)"/>
</clipPath>
</defs>
</svg>
